<svg width="500" height="500" viewBox="0 0 500 500" fill="none" xmlns="http://www.w3.org/2000/svg">
<g clip-path="url(#clip0_248_2)">
<path d="M500 0H0V500H500V0Z" fill="white"/>
<path d="M264.88 349.72H485.11C493.32 349.72 499.99 356.39 499.99 364.6V499.99H249.99V364.6C249.99 356.39 256.66 349.72 264.87 349.72H264.88Z" fill="url(#paint0_linear_248_2)"/>
<path d="M14.88 349.72H235.11C243.32 349.72 249.99 356.39 249.99 364.6V499.99H0V364.6C0 356.39 6.67 349.72 14.88 349.72Z" fill="url(#paint1_linear_248_2)"/>
<path d="M339.003 153.933L324.248 150.985C324.149 149.25 324.016 147.531 323.8 145.829L337.775 140.282C337.251 137.21 336.579 134.179 335.732 131.207L320.719 132.178C320.18 130.534 319.582 128.923 318.926 127.321L330.974 118.353C329.67 115.53 328.217 112.782 326.631 110.116L312.416 114.932C311.478 113.487 310.481 112.084 309.435 110.706L318.752 98.9317C316.767 96.5404 314.675 94.2486 312.449 92.0731L299.953 100.41C298.674 99.2555 297.354 98.1512 295.984 97.0884L301.946 83.2716C299.43 81.4781 296.797 79.8257 294.082 78.2979L284.16 89.5987C282.624 88.8265 281.054 88.1124 279.452 87.4399L281.636 72.552C278.746 71.4808 275.782 70.5591 272.751 69.7869L266.083 83.2882C265.245 83.1138 264.406 82.9311 263.551 82.7817C262.696 82.6322 261.849 82.5243 260.993 82.408L259.25 67.4537C256.128 67.1548 253.03 67.0302 249.95 67.0717L247.002 81.8268C245.275 81.9181 243.548 82.0593 241.846 82.2752L236.299 68.3006C233.227 68.8238 230.196 69.4963 227.224 70.3433L228.195 85.3557C226.551 85.8954 224.94 86.4933 223.338 87.1493L214.37 75.1011C211.547 76.4047 208.798 77.8578 206.125 79.4437L210.941 93.6591C209.496 94.6057 208.093 95.5938 206.714 96.64L194.94 87.3236C192.549 89.2998 190.257 91.4006 188.082 93.6259L196.418 106.122C195.272 107.401 194.16 108.721 193.097 110.091L179.28 104.13C177.487 106.646 175.834 109.278 174.306 111.993L185.599 121.915C184.818 123.452 184.113 125.021 183.44 126.623L168.552 124.44C167.481 127.329 166.559 130.293 165.787 133.333L179.288 140C179.114 140.839 178.931 141.677 178.782 142.533C178.632 143.388 178.524 144.235 178.408 145.09L163.454 146.834C163.163 149.956 163.03 153.053 163.072 156.134L177.827 159.081C177.927 160.817 178.059 162.535 178.275 164.246L164.301 169.793C164.824 172.865 165.496 175.896 166.343 178.868L181.356 177.888C181.896 179.532 182.493 181.152 183.149 182.746L171.101 191.713C172.405 194.537 173.858 197.285 175.444 199.95L189.668 195.134C190.606 196.579 191.602 197.982 192.64 199.361L183.324 211.135C185.308 213.526 187.401 215.818 189.626 217.994L202.123 209.657C203.41 210.811 204.722 211.916 206.092 212.978L200.13 226.795C202.646 228.589 205.278 230.241 207.993 231.769L217.907 220.468C219.443 221.24 221.013 221.963 222.615 222.627L220.431 237.515C223.313 238.586 226.277 239.499 229.316 240.28L235.984 226.779C236.822 226.953 237.661 227.136 238.516 227.285C239.371 227.434 240.218 227.542 241.074 227.659L242.817 242.613C245.931 242.904 249.037 243.028 252.117 242.995L255.056 228.232C256.792 228.14 258.511 227.999 260.213 227.783L265.76 241.758C268.832 241.235 271.871 240.562 274.835 239.715L273.864 224.703C275.508 224.163 277.118 223.565 278.713 222.909L287.689 234.957C290.512 233.654 293.26 232.201 295.926 230.615L291.11 216.399C292.554 215.453 293.966 214.465 295.336 213.427L307.11 222.743C309.502 220.759 311.793 218.666 313.969 216.441L305.632 203.944C306.786 202.657 307.891 201.345 308.954 199.975L322.77 205.945C324.556 203.429 326.216 200.797 327.744 198.082L316.452 188.168C317.232 186.632 317.938 185.054 318.61 183.46L333.498 185.644C334.569 182.754 335.483 179.798 336.263 176.759L322.762 170.091C322.945 169.253 323.119 168.414 323.269 167.559C323.418 166.704 323.526 165.848 323.642 165.002L338.597 163.258C338.887 160.136 339.012 157.039 338.978 153.958L339.003 153.933ZM240.542 215.71C207.08 209.923 184.569 177.988 190.357 144.525C196.144 111.063 228.079 88.5525 261.541 94.34C294.996 100.127 317.514 132.062 311.727 165.525C305.939 198.987 273.996 221.498 240.542 215.71Z" fill="#424858"/>
<path d="M261.052 97.2297C229.184 91.7162 198.768 113.156 193.255 145.024C187.742 176.892 209.181 207.307 241.049 212.821C272.917 218.334 303.333 196.895 308.846 165.027C314.36 133.158 292.92 102.743 261.052 97.2297ZM242.544 204.152C215.458 199.461 197.232 173.612 201.915 146.527C206.599 119.441 232.464 101.215 259.549 105.898C286.635 110.59 304.86 136.438 300.177 163.524C295.486 190.609 269.638 208.835 242.552 204.144L242.544 204.152Z" fill="#424858"/>
<path d="M338.015 152.945L323.26 149.997C323.16 148.262 323.028 146.543 322.812 144.841L336.786 139.294C336.263 136.222 335.591 133.191 334.744 130.219L319.731 131.19C319.191 129.546 318.594 127.935 317.938 126.333L329.986 117.365C328.682 114.542 327.229 111.793 325.643 109.128L311.428 113.944C310.49 112.499 309.493 111.096 308.447 109.718L317.763 97.9434C315.779 95.5521 313.686 93.2603 311.461 91.0849L298.964 99.4214C297.686 98.2756 296.365 97.1629 294.995 96.1001L300.957 82.2833C298.441 80.4898 295.809 78.8374 293.094 77.3096L283.171 88.6105C281.635 87.8383 280.066 87.1242 278.463 86.4516L280.647 71.5637C277.758 70.4925 274.793 69.5709 271.763 68.7987L265.095 82.2999C264.256 82.1255 263.418 81.9429 262.563 81.7934C261.707 81.644 260.86 81.536 260.005 81.4198L258.261 66.4654C255.139 66.1665 252.042 66.0419 248.962 66.0835L246.014 80.8385C244.287 80.9299 242.56 81.071 240.858 81.2869L235.311 67.3124C232.239 67.8355 229.208 68.508 226.235 69.355L227.207 84.3674C225.563 84.9072 223.952 85.505 222.349 86.161L213.382 74.1128C210.559 75.4164 207.81 76.8695 205.137 78.4555L209.952 92.6708C208.508 93.6174 207.104 94.6055 205.726 95.6517L193.952 86.3353C191.561 88.3115 189.269 90.4123 187.093 92.6376L195.43 105.134C194.284 106.413 193.171 107.733 192.109 109.103L178.292 103.141C176.498 105.657 174.846 108.289 173.318 111.005L184.611 120.927C183.83 122.463 183.124 124.033 182.452 125.635L167.564 123.451C166.493 126.341 165.571 129.305 164.799 132.344L178.3 139.012C178.126 139.85 177.943 140.689 177.794 141.544C177.644 142.4 177.536 143.247 177.42 144.093L162.466 145.837C162.175 148.959 162.042 152.056 162.084 155.137L176.839 158.085C176.938 159.82 177.071 161.539 177.287 163.249L163.313 168.796C163.836 171.868 164.508 174.899 165.355 177.872L180.368 176.892C180.907 178.536 181.505 180.155 182.161 181.749L170.113 190.717C171.417 193.548 172.87 196.288 174.456 198.962L188.679 194.146C189.618 195.583 190.614 196.994 191.652 198.373L182.335 210.147C184.32 212.538 186.412 214.83 188.638 217.005L201.134 208.669C202.421 209.823 203.733 210.927 205.103 211.99L199.141 225.807C201.657 227.6 204.29 229.253 207.005 230.781L216.919 219.48C218.455 220.252 220.024 220.966 221.627 221.639L219.443 236.526C222.324 237.598 225.289 238.519 228.328 239.291L234.995 225.79C235.834 225.965 236.673 226.147 237.528 226.297C238.383 226.446 239.23 226.554 240.085 226.67L241.829 241.625C244.943 241.915 248.048 242.04 251.129 242.007L254.068 227.243C255.804 227.152 257.522 227.011 259.225 226.795L264.771 240.769C267.843 240.246 270.882 239.574 273.847 238.727L272.875 223.714C274.519 223.175 276.13 222.577 277.724 221.921L286.7 233.969C289.524 232.665 292.272 231.212 294.937 229.626L290.121 215.411C291.566 214.464 292.969 213.476 294.348 212.438L306.122 221.755C308.513 219.77 310.805 217.678 312.981 215.453L304.644 202.956C305.798 201.669 306.902 200.357 307.965 198.987L321.782 204.957C323.567 202.441 325.228 199.809 326.756 197.094L315.463 187.18C316.244 185.643 316.95 184.066 317.622 182.472L332.51 184.655C333.581 181.766 334.495 178.81 335.275 175.771L321.774 169.095C321.956 168.256 322.131 167.418 322.28 166.562C322.43 165.707 322.538 164.852 322.654 164.005L337.608 162.261C337.899 159.139 338.023 156.042 337.99 152.961L338.015 152.945ZM239.562 214.722C206.1 208.934 183.589 177 189.377 143.537C195.164 110.075 227.099 87.5642 260.561 93.3517C294.016 99.1391 316.534 131.074 310.747 164.536C304.959 197.999 273.016 220.509 239.562 214.722Z" fill="#424858"/>
<path d="M260.064 96.2409C228.195 90.7275 197.78 112.167 192.267 144.035C186.753 175.903 208.193 206.319 240.061 211.832C271.929 217.345 302.344 195.906 307.858 164.038C313.371 132.17 291.932 101.754 260.064 96.2409ZM241.514 203.429C214.279 198.713 195.953 172.723 200.67 145.496C205.378 118.261 231.376 99.9359 258.611 104.652C285.846 109.369 304.171 135.358 299.455 162.593C294.747 189.828 268.749 208.145 241.522 203.437L241.514 203.429Z" fill="#424858"/>
<path d="M338.571 153.56L323.816 150.612C323.717 148.885 323.584 147.158 323.368 145.456L337.342 139.909C336.819 136.837 336.147 133.806 335.3 130.833L320.287 131.805C319.748 130.161 319.15 128.55 318.494 126.947L330.542 117.98C329.238 115.157 327.785 112.408 326.199 109.743L311.976 114.559C311.037 113.114 310.041 111.711 308.995 110.332L318.311 98.5582C316.327 96.1668 314.234 93.8751 312.009 91.6996L299.512 100.036C298.234 98.8903 296.913 97.7777 295.543 96.7148L301.505 82.898C298.989 81.1045 296.357 79.4522 293.642 77.9243L283.719 89.2252C282.183 88.453 280.614 87.7389 279.011 87.0663L281.195 72.1784C278.306 71.1073 275.341 70.1856 272.31 69.4134L265.643 82.9147C264.804 82.7403 263.966 82.5576 263.11 82.4081C262.255 82.2587 261.408 82.1507 260.553 82.0345L258.809 67.0802C255.687 66.7812 252.59 66.6567 249.509 66.6982L246.562 81.4533C244.835 81.5446 243.108 81.6858 241.405 81.9016L235.859 67.9271C232.787 68.4502 229.756 69.1228 226.783 69.9697L227.755 84.9822C226.111 85.5219 224.5 86.1198 222.897 86.7757L213.93 74.7275C211.106 76.0312 208.358 77.4843 205.684 79.0702L210.5 93.2855C209.056 94.2321 207.652 95.2202 206.274 96.2665L194.5 86.9501C192.108 88.9263 189.817 91.027 187.641 93.2523L195.978 105.749C194.832 107.028 193.719 108.356 192.656 109.718L178.84 103.756C177.046 106.272 175.394 108.904 173.866 111.619L185.158 121.542C184.378 123.078 183.672 124.647 183 126.25L168.112 124.066C167.041 126.956 166.119 129.912 165.347 132.959L178.848 139.627C178.674 140.465 178.491 141.304 178.341 142.159C178.192 143.014 178.084 143.861 177.968 144.708L163.013 146.452C162.723 149.574 162.59 152.671 162.631 155.752L177.387 158.699C177.486 160.435 177.619 162.154 177.835 163.856L163.86 169.402C164.383 172.475 165.056 175.505 165.903 178.478L180.915 177.498C181.455 179.142 182.053 180.761 182.709 182.356L170.661 191.323C171.964 194.146 173.418 196.895 175.003 199.569L189.227 194.753C190.165 196.197 191.162 197.601 192.2 198.979L182.883 210.753C184.868 213.144 186.96 215.436 189.186 217.612L201.682 209.275C202.969 210.429 204.281 211.534 205.651 212.596L199.689 226.413C202.205 228.207 204.837 229.859 207.553 231.387L217.467 220.086C219.003 220.858 220.572 221.572 222.175 222.245L219.991 237.133C222.872 238.204 225.837 239.126 228.876 239.898L235.543 226.397C236.382 226.571 237.221 226.754 238.076 226.903C238.931 227.053 239.778 227.161 240.633 227.277L242.377 242.231C245.491 242.522 248.596 242.655 251.677 242.613L254.616 227.85C256.351 227.758 258.07 227.609 259.772 227.401L265.319 241.376C268.391 240.853 271.43 240.18 274.395 239.333L273.423 224.321C275.067 223.781 276.678 223.183 278.272 222.527L287.248 234.575C290.071 233.272 292.82 231.819 295.485 230.233L290.669 216.017C292.114 215.071 293.517 214.083 294.896 213.045L306.67 222.361C309.061 220.377 311.353 218.284 313.528 216.059L305.192 203.562C306.346 202.284 307.45 200.963 308.513 199.593L322.33 205.564C324.115 203.048 325.776 200.415 327.304 197.7L316.011 187.786C316.792 186.25 317.497 184.672 318.17 183.078L333.058 185.262C334.129 182.372 335.042 179.408 335.823 176.377L322.322 169.71C322.504 168.871 322.679 168.032 322.828 167.177C322.978 166.322 323.086 165.475 323.202 164.62L338.156 162.876C338.447 159.754 338.571 156.657 338.538 153.576L338.571 153.56ZM242.103 203.87C214.968 199.17 196.708 173.272 201.4 146.136C206.091 119.001 231.998 100.742 259.133 105.442C286.268 110.141 304.528 136.04 299.828 163.167C295.128 190.302 269.23 208.561 242.103 203.861V203.87Z" fill="#424858"/>
<path d="M338.571 153.56L323.816 150.612C323.717 148.885 323.584 147.158 323.368 145.456L337.342 139.909C336.819 136.837 336.147 133.806 335.3 130.833L320.287 131.805C319.748 130.161 319.15 128.55 318.494 126.947L330.542 117.98C329.238 115.157 327.785 112.408 326.199 109.743L311.976 114.559C311.037 113.114 310.041 111.711 308.995 110.332L318.311 98.5582C316.327 96.1668 314.234 93.8751 312.009 91.6996L299.512 100.036C298.234 98.8903 296.913 97.7777 295.543 96.7148L301.505 82.898C298.989 81.1045 296.357 79.4522 293.642 77.9243L283.719 89.2252C282.183 88.453 280.614 87.7389 279.011 87.0663L281.195 72.1784C278.306 71.1073 275.341 70.1856 272.31 69.4134L265.643 82.9147C264.804 82.7403 263.966 82.5576 263.11 82.4081C262.255 82.2587 261.408 82.1507 260.553 82.0345L258.809 67.0802C255.687 66.7812 252.59 66.6567 249.509 66.6982L246.562 81.4533C244.835 81.5446 243.108 81.6858 241.405 81.9016L235.859 67.9271C232.787 68.4502 229.756 69.1228 226.783 69.9697L227.755 84.9822C226.111 85.5219 224.5 86.1198 222.897 86.7757L213.93 74.7275C211.106 76.0312 208.358 77.4843 205.684 79.0702L210.5 93.2855C209.056 94.2321 207.652 95.2202 206.274 96.2665L194.5 86.9501C192.108 88.9263 189.817 91.027 187.641 93.2523L195.978 105.749C194.832 107.028 193.719 108.356 192.656 109.718L178.84 103.756C177.046 106.272 175.394 108.904 173.866 111.619L185.158 121.542C184.378 123.078 183.672 124.647 183 126.25L168.112 124.066C167.041 126.956 166.119 129.912 165.347 132.959L178.848 139.627C178.674 140.465 178.491 141.304 178.341 142.159C178.192 143.014 178.084 143.861 177.968 144.708L163.013 146.452C162.723 149.574 162.59 152.671 162.631 155.752L177.387 158.699C177.486 160.435 177.619 162.154 177.835 163.856L163.86 169.402C164.383 172.475 165.056 175.505 165.903 178.478L180.915 177.498C181.455 179.142 182.053 180.761 182.709 182.356L170.661 191.323C171.964 194.146 173.418 196.895 175.003 199.569L189.227 194.753C190.165 196.197 191.162 197.601 192.2 198.979L182.883 210.753C184.868 213.144 186.96 215.436 189.186 217.612L201.682 209.275C202.969 210.429 204.281 211.534 205.651 212.596L199.689 226.413C202.205 228.207 204.837 229.859 207.553 231.387L217.467 220.086C219.003 220.858 220.572 221.572 222.175 222.245L219.991 237.133C222.872 238.204 225.837 239.126 228.876 239.898L235.543 226.397C236.382 226.571 237.221 226.754 238.076 226.903C238.931 227.053 239.778 227.161 240.633 227.277L242.377 242.231C245.491 242.522 248.596 242.655 251.677 242.613L254.616 227.85C256.351 227.758 258.07 227.609 259.772 227.401L265.319 241.376C268.391 240.853 271.43 240.18 274.395 239.333L273.423 224.321C275.067 223.781 276.678 223.183 278.272 222.527L287.248 234.575C290.071 233.272 292.82 231.819 295.485 230.233L290.669 216.017C292.114 215.071 293.517 214.083 294.896 213.045L306.67 222.361C309.061 220.377 311.353 218.284 313.528 216.059L305.192 203.562C306.346 202.284 307.45 200.963 308.513 199.593L322.33 205.564C324.115 203.048 325.776 200.415 327.304 197.7L316.011 187.786C316.792 186.25 317.497 184.672 318.17 183.078L333.058 185.262C334.129 182.372 335.042 179.408 335.823 176.377L322.322 169.71C322.504 168.871 322.679 168.032 322.828 167.177C322.978 166.322 323.086 165.475 323.202 164.62L338.156 162.876C338.447 159.754 338.571 156.657 338.538 153.576L338.571 153.56ZM240.11 215.345C206.648 209.557 184.137 177.623 189.925 144.16C195.712 110.698 227.647 88.1873 261.109 93.9747C294.564 99.7622 317.082 131.697 311.295 165.159C305.507 198.622 273.564 221.132 240.11 215.345Z" fill="#424858"/>
<path d="M260.619 96.8556C228.751 91.3422 198.336 112.781 192.822 144.65C187.309 176.518 208.748 206.933 240.617 212.447C272.485 217.96 302.9 196.521 308.413 164.653C313.927 132.784 292.488 102.369 260.619 96.8556ZM242.053 204.152C214.76 199.427 196.393 173.371 201.118 146.086C205.842 118.793 231.898 100.426 259.191 105.151C286.484 109.875 304.851 135.923 300.127 163.216C295.402 190.509 269.354 208.876 242.061 204.152H242.053Z" fill="url(#paint2_linear_248_2)"/>
<path d="M250.049 110.661C234.909 110.661 222.629 122.933 222.629 138.08C222.629 146.737 226.651 154.454 232.918 159.479C235.491 161.932 239.52 167.252 240.317 174.563V149.118L238.708 147.51L241.933 138.08L245.159 147.51L243.55 149.118V174.563H248.44V132.259L246.831 130.65V121.221H253.274V130.65L251.665 132.259V174.563H256.555V143.942L258.172 138.08L259.788 143.942V174.563C260.585 167.252 264.615 161.932 267.187 159.479C273.454 154.454 277.476 146.737 277.476 138.08C277.476 122.941 265.204 110.661 250.057 110.661H250.049Z" fill="url(#paint3_radial_248_2)"/>
<path d="M230.196 164.369C229.949 164.154 229.694 163.939 229.431 163.724C224.788 159.981 221.189 155.011 219.118 149.301H207.674C208.001 150.544 208.375 151.762 208.805 152.949L201.653 159.463C203.198 162.959 205.11 166.264 207.347 169.315L216.57 166.376C218.154 168.247 219.891 169.991 221.77 171.576L218.831 180.798C221.882 183.036 225.187 184.948 228.683 186.493L230.984 183.968C236.129 178.322 235.906 169.442 230.188 164.369H230.196Z" fill="url(#paint4_linear_248_2)"/>
<path d="M292.426 149.301H280.981C278.911 155.011 275.311 159.981 270.668 163.724C270.405 163.939 270.151 164.154 269.904 164.369C264.194 169.442 263.963 178.322 269.107 183.968L271.409 186.493C274.905 184.948 278.21 183.036 281.26 180.798L278.321 171.576C280.193 169.991 281.937 168.255 283.522 166.376L292.744 169.315C294.982 166.264 296.893 162.959 298.438 159.463L291.287 152.949C291.717 151.754 292.091 150.536 292.418 149.301H292.426Z" fill="url(#paint5_linear_248_2)"/>
<path d="M259.789 178.354H240.317V182.781H259.789V178.354Z" fill="url(#paint6_linear_248_2)"/>
<path d="M251.499 191H248.609C246.164 191 244.181 189.017 244.181 186.572H255.919C255.919 189.017 253.936 191 251.492 191H251.499Z" fill="url(#paint7_linear_248_2)"/>
<path d="M160.036 259.264L160.92 251.308L183.592 231.6H192.12L172.672 248.5L168.304 252.088L160.036 259.264ZM152.132 268L159.412 231.6H166.12L158.84 268H152.132ZM177.976 268L166.796 251.412L171.424 246.836L185.516 268H177.976Z" fill="#F1A438"/>
<path d="M188.975 263.107L189.311 261.364H194.96L194.603 263.107H188.975Z" fill="black"/>
<path d="M201.004 259.411H208.333L207.892 261.658H200.563L201.004 259.411ZM199.954 265.711H208.27L207.808 268H196.783L199.723 253.3H210.454L209.992 255.589H201.97L199.954 265.711ZM210.851 268L213.791 253.3H216.038L222.737 264.703L221.876 264.598L224.123 253.3H226.832L223.892 268H221.645L214.967 256.597L215.828 256.702L213.56 268H210.851ZM235.307 268.21C233.837 268.21 232.57 267.944 231.506 267.412C230.442 266.88 229.616 266.145 229.028 265.207C228.454 264.255 228.167 263.163 228.167 261.931C228.167 260.685 228.377 259.53 228.797 258.466C229.231 257.388 229.847 256.45 230.645 255.652C231.443 254.854 232.402 254.231 233.522 253.783C234.656 253.321 235.916 253.09 237.302 253.09C238.646 253.09 239.815 253.3 240.809 253.72C241.803 254.14 242.601 254.735 243.203 255.505L241.229 257.143C240.739 256.555 240.158 256.135 239.486 255.883C238.828 255.617 238.058 255.484 237.176 255.484C236.224 255.484 235.363 255.645 234.593 255.967C233.823 256.275 233.165 256.716 232.619 257.29C232.073 257.864 231.653 258.536 231.359 259.306C231.065 260.062 230.918 260.881 230.918 261.763C230.918 262.561 231.093 263.268 231.443 263.884C231.793 264.5 232.318 264.976 233.018 265.312C233.718 265.648 234.586 265.816 235.622 265.816C236.392 265.816 237.113 265.69 237.785 265.438C238.471 265.172 239.115 264.78 239.717 264.262L240.788 266.404C240.06 266.978 239.213 267.426 238.247 267.748C237.295 268.056 236.315 268.21 235.307 268.21ZM238.31 265.984L239.402 260.482H241.985L240.788 266.404L238.31 265.984ZM244.074 268L247.014 253.3H249.744L246.804 268H244.074ZM250.78 268L253.72 253.3H255.967L262.666 264.703L261.805 264.598L264.052 253.3H266.761L263.821 268H261.574L254.896 256.597L255.757 256.702L253.489 268H250.78ZM272.002 259.411H279.331L278.89 261.658H271.561L272.002 259.411ZM270.952 265.711H279.268L278.806 268H267.781L270.721 253.3H281.452L280.99 255.589H272.968L270.952 265.711ZM286.07 259.411H293.399L292.958 261.658H285.629L286.07 259.411ZM285.02 265.711H293.336L292.874 268H281.849L284.789 253.3H295.52L295.058 255.589H287.036L285.02 265.711ZM295.918 268L298.858 253.3H304.57C306.348 253.3 307.72 253.692 308.686 254.476C309.666 255.246 310.156 256.331 310.156 257.731C310.156 258.963 309.869 260.027 309.295 260.923C308.735 261.805 307.93 262.491 306.88 262.981C305.83 263.457 304.584 263.695 303.142 263.695H298.354L299.761 262.456L298.669 268H295.918ZM305.578 268L302.575 262.666H305.473L308.476 268H305.578ZM299.698 262.771L298.774 261.448H303.226C304.556 261.448 305.585 261.154 306.313 260.566C307.041 259.978 307.405 259.117 307.405 257.983C307.405 257.185 307.132 256.59 306.586 256.198C306.054 255.806 305.284 255.61 304.276 255.61H299.992L301.42 254.245L299.698 262.771ZM311.278 268L314.218 253.3H316.948L314.008 268H311.278ZM317.984 268L320.924 253.3H323.171L329.87 264.703L329.009 264.598L331.256 253.3H333.965L331.025 268H328.778L322.1 256.597L322.961 256.702L320.693 268H317.984ZM342.44 268.21C340.97 268.21 339.703 267.944 338.639 267.412C337.575 266.88 336.749 266.145 336.161 265.207C335.587 264.255 335.3 263.163 335.3 261.931C335.3 260.685 335.51 259.53 335.93 258.466C336.364 257.388 336.98 256.45 337.778 255.652C338.576 254.854 339.535 254.231 340.655 253.783C341.789 253.321 343.049 253.09 344.435 253.09C345.779 253.09 346.948 253.3 347.942 253.72C348.936 254.14 349.734 254.735 350.336 255.505L348.362 257.143C347.872 256.555 347.291 256.135 346.619 255.883C345.961 255.617 345.191 255.484 344.309 255.484C343.357 255.484 342.496 255.645 341.726 255.967C340.956 256.275 340.298 256.716 339.752 257.29C339.206 257.864 338.786 258.536 338.492 259.306C338.198 260.062 338.051 260.881 338.051 261.763C338.051 262.561 338.226 263.268 338.576 263.884C338.926 264.5 339.451 264.976 340.151 265.312C340.851 265.648 341.719 265.816 342.755 265.816C343.525 265.816 344.246 265.69 344.918 265.438C345.604 265.172 346.248 264.78 346.85 264.262L347.921 266.404C347.193 266.978 346.346 267.426 345.38 267.748C344.428 268.056 343.448 268.21 342.44 268.21ZM345.443 265.984L346.535 260.482H349.118L347.921 266.404L345.443 265.984Z" fill="#424858"/>
<path d="M413.687 405.902L407.154 404.597C407.11 403.828 407.051 403.067 406.956 402.314L413.143 399.858C412.912 398.497 412.614 397.155 412.239 395.839L405.592 396.269C405.353 395.541 405.088 394.828 404.797 394.118L410.132 390.148C409.555 388.898 408.912 387.681 408.209 386.5L401.915 388.633C401.5 387.993 401.058 387.372 400.595 386.762L404.72 381.548C403.842 380.489 402.915 379.474 401.93 378.511L396.396 382.203C395.83 381.691 395.246 381.202 394.639 380.732L397.279 374.614C396.165 373.82 394.999 373.088 393.797 372.412L389.403 377.416C388.723 377.074 388.028 376.757 387.319 376.46L388.286 369.868C387.006 369.393 385.694 368.985 384.352 368.643L381.4 374.621C381.028 374.544 380.657 374.463 380.278 374.397C379.899 374.331 379.524 374.283 379.146 374.232L378.374 367.61C376.991 367.478 375.62 367.423 374.256 367.441L372.951 373.974C372.186 374.015 371.421 374.077 370.667 374.173L368.212 367.985C366.851 368.217 365.509 368.515 364.193 368.89L364.623 375.537C363.895 375.776 363.182 376.041 362.472 376.331L358.502 370.996C357.252 371.573 356.035 372.217 354.851 372.919L356.983 379.213C356.343 379.633 355.722 380.07 355.112 380.533L349.898 376.408C348.839 377.283 347.825 378.213 346.861 379.199L350.553 384.732C350.045 385.298 349.553 385.883 349.082 386.489L342.964 383.85C342.17 384.964 341.438 386.129 340.762 387.331L345.762 391.725C345.417 392.405 345.104 393.1 344.806 393.81L338.214 392.843C337.74 394.122 337.332 395.435 336.99 396.78L342.968 399.733C342.891 400.104 342.81 400.475 342.744 400.854C342.677 401.233 342.63 401.608 342.578 401.986L335.957 402.758C335.828 404.141 335.769 405.512 335.787 406.876L342.321 408.181C342.365 408.95 342.424 409.711 342.519 410.468L336.332 412.924C336.563 414.285 336.861 415.627 337.236 416.943L343.883 416.509C344.122 417.237 344.387 417.954 344.678 418.66L339.343 422.631C339.92 423.881 340.563 425.098 341.266 426.278L347.564 424.145C347.979 424.785 348.42 425.406 348.88 426.017L344.755 431.23C345.633 432.289 346.56 433.304 347.545 434.267L353.079 430.576C353.648 431.087 354.229 431.576 354.836 432.046L352.196 438.164C353.31 438.958 354.476 439.69 355.678 440.367L360.068 435.363C360.748 435.705 361.443 436.024 362.152 436.319L361.185 442.911C362.461 443.385 363.774 443.789 365.119 444.135L368.072 438.157C368.443 438.234 368.814 438.315 369.193 438.381C369.572 438.447 369.947 438.495 370.326 438.547L371.098 445.168C372.476 445.297 373.851 445.352 375.215 445.337L376.517 438.8C377.285 438.76 378.046 438.697 378.8 438.602L381.256 444.789C382.616 444.558 383.962 444.26 385.275 443.885L384.844 437.238C385.572 436.999 386.286 436.734 386.992 436.444L390.966 441.778C392.216 441.201 393.433 440.558 394.613 439.855L392.481 433.561C393.121 433.142 393.746 432.704 394.352 432.245L399.566 436.37C400.625 435.491 401.639 434.565 402.603 433.579L398.911 428.046C399.422 427.476 399.911 426.895 400.382 426.289L406.5 428.932C407.29 427.818 408.026 426.653 408.702 425.451L403.702 421.061C404.047 420.38 404.36 419.682 404.658 418.976L411.25 419.943C411.724 418.663 412.129 417.355 412.474 416.009L406.496 413.057C406.577 412.685 406.654 412.314 406.72 411.935C406.787 411.557 406.834 411.178 406.886 410.803L413.507 410.031C413.636 408.648 413.691 407.277 413.676 405.913L413.687 405.902ZM370.09 433.256C355.274 430.693 345.306 416.553 347.869 401.736C350.431 386.92 364.572 376.952 379.388 379.515C394.201 382.078 404.172 396.218 401.61 411.035C399.047 425.851 384.903 435.819 370.09 433.256Z" fill="black"/>
<path d="M379.172 380.794C365.061 378.353 351.594 387.846 349.152 401.957C346.711 416.068 356.204 429.535 370.315 431.976C384.426 434.418 397.893 424.925 400.334 410.814C402.776 396.703 393.283 383.236 379.172 380.794ZM370.977 428.138C358.984 426.061 350.913 414.616 352.987 402.622C355.061 390.629 366.513 382.559 378.506 384.633C390.499 386.71 398.57 398.155 396.496 410.148C394.419 422.142 382.973 430.212 370.98 428.134L370.977 428.138Z" fill="black"/>
<path d="M413.251 405.464L406.718 404.159C406.674 403.391 406.615 402.63 406.519 401.876L412.707 399.42C412.475 398.06 412.177 396.718 411.802 395.402L405.155 395.832C404.916 395.104 404.651 394.391 404.361 393.681L409.696 389.71C409.118 388.46 408.475 387.243 407.773 386.063L401.478 388.195C401.063 387.556 400.622 386.934 400.159 386.324L404.284 381.111C403.405 380.052 402.479 379.037 401.493 378.074L395.96 381.765C395.394 381.258 394.809 380.765 394.202 380.294L396.842 374.177C395.728 373.382 394.563 372.651 393.361 371.974L388.967 376.978C388.287 376.636 387.592 376.32 386.882 376.022L387.849 369.43C386.57 368.956 385.257 368.548 383.915 368.206L380.963 374.184C380.592 374.107 380.22 374.026 379.842 373.96C379.463 373.893 379.088 373.846 378.709 373.794L377.937 367.173C376.555 367.04 375.183 366.985 373.819 367.003L372.514 373.537C371.749 373.577 370.985 373.64 370.231 373.735L367.775 367.548C366.415 367.779 365.073 368.077 363.756 368.452L364.187 375.099C363.459 375.338 362.745 375.603 362.036 375.893L358.065 370.559C356.815 371.136 355.598 371.779 354.414 372.482L356.547 378.776C355.907 379.195 355.286 379.633 354.675 380.096L349.462 375.971C348.403 376.846 347.388 377.776 346.425 378.761L350.116 384.295C349.609 384.861 349.116 385.445 348.646 386.052L342.528 383.412C341.734 384.526 341.002 385.692 340.325 386.894L345.326 391.287C344.98 391.968 344.667 392.663 344.37 393.372L337.778 392.405C337.303 393.685 336.895 394.997 336.553 396.343L342.531 399.295C342.454 399.666 342.373 400.038 342.307 400.416C342.241 400.795 342.193 401.17 342.142 401.545L335.52 402.317C335.391 403.7 335.333 405.071 335.351 406.435L341.884 407.74C341.928 408.509 341.987 409.27 342.083 410.027L335.895 412.483C336.127 413.843 336.425 415.185 336.8 416.502L343.447 416.068C343.686 416.796 343.951 417.513 344.241 418.219L338.906 422.189C339.483 423.443 340.127 424.656 340.829 425.84L347.127 423.708C347.543 424.344 347.984 424.969 348.443 425.579L344.318 430.793C345.197 431.852 346.123 432.866 347.109 433.83L352.642 430.138C353.212 430.649 353.793 431.138 354.399 431.609L351.76 437.727C352.874 438.521 354.039 439.253 355.241 439.929L359.631 434.925C360.311 435.267 361.006 435.583 361.716 435.881L360.749 442.473C362.025 442.948 363.337 443.356 364.683 443.698L367.635 437.719C368.007 437.797 368.378 437.877 368.757 437.944C369.135 438.01 369.51 438.058 369.889 438.109L370.661 444.731C372.04 444.859 373.415 444.915 374.779 444.9L376.08 438.363C376.849 438.322 377.61 438.26 378.364 438.164L380.82 444.352C382.18 444.12 383.526 443.823 384.838 443.448L384.408 436.8C385.136 436.561 385.849 436.297 386.555 436.006L390.53 441.341C391.78 440.764 392.997 440.12 394.177 439.418L392.044 433.124C392.684 432.704 393.305 432.267 393.916 431.807L399.129 435.933C400.188 435.054 401.203 434.127 402.166 433.142L398.475 427.609C398.986 427.039 399.475 426.458 399.945 425.851L406.063 428.495C406.854 427.381 407.589 426.215 408.265 425.013L403.265 420.623C403.611 419.943 403.923 419.244 404.221 418.538L410.813 419.505C411.288 418.226 411.692 416.917 412.038 415.571L406.06 412.615C406.14 412.244 406.218 411.873 406.284 411.494C406.35 411.115 406.398 410.737 406.449 410.362L413.071 409.59C413.2 408.207 413.255 406.836 413.24 405.472L413.251 405.464ZM369.657 432.818C354.841 430.256 344.873 416.116 347.436 401.299C349.999 386.482 364.139 376.515 378.956 379.077C393.769 381.64 403.74 395.78 401.177 410.597C398.614 425.414 384.47 435.381 369.657 432.818Z" fill="black"/>
<path d="M378.735 380.357C364.624 377.916 351.157 387.409 348.716 401.519C346.274 415.63 355.768 429.098 369.878 431.539C383.989 433.98 397.457 424.487 399.898 410.376C402.339 396.266 392.846 382.798 378.735 380.357ZM370.522 427.818C358.462 425.73 350.348 414.222 352.436 402.167C354.521 390.107 366.033 381.993 378.092 384.081C390.151 386.17 398.265 397.677 396.177 409.737C394.092 421.796 382.581 429.907 370.525 427.822L370.522 427.818Z" fill="black"/>
<path d="M413.497 405.736L406.964 404.431C406.919 403.667 406.861 402.902 406.765 402.148L412.953 399.692C412.721 398.332 412.423 396.99 412.048 395.674L405.401 396.104C405.162 395.376 404.897 394.662 404.607 393.953L409.942 389.982C409.364 388.732 408.721 387.515 408.019 386.335L401.721 388.467C401.305 387.828 400.864 387.206 400.401 386.596L404.526 381.383C403.647 380.324 402.721 379.309 401.735 378.346L396.202 382.037C395.636 381.53 395.051 381.037 394.445 380.566L397.084 374.448C395.97 373.654 394.805 372.923 393.603 372.246L389.209 377.25C388.529 376.908 387.834 376.592 387.125 376.294L388.091 369.702C386.812 369.228 385.499 368.82 384.157 368.478L381.205 374.456C380.834 374.379 380.462 374.298 380.084 374.232C379.705 374.165 379.33 374.118 378.951 374.066L378.179 367.445C376.797 367.312 375.426 367.257 374.062 367.275L372.756 373.809C371.992 373.849 371.227 373.912 370.473 374.007L368.017 367.82C366.657 368.051 365.315 368.349 363.999 368.724L364.429 375.371C363.701 375.61 362.988 375.875 362.278 376.165L358.307 370.831C357.057 371.408 355.84 372.051 354.656 372.754L356.789 379.048C356.149 379.467 355.528 379.905 354.917 380.368L349.704 376.243C348.645 377.118 347.63 378.048 346.667 379.033L350.358 384.567C349.851 385.133 349.358 385.721 348.888 386.324L342.77 383.684C341.976 384.798 341.244 385.964 340.568 387.166L345.568 391.559C345.222 392.24 344.91 392.934 344.612 393.644L338.02 392.677C337.545 393.957 337.137 395.265 336.795 396.615L342.774 399.567C342.696 399.938 342.615 400.31 342.549 400.688C342.483 401.067 342.435 401.442 342.384 401.817L335.762 402.589C335.634 403.972 335.575 405.343 335.593 406.707L342.126 408.012C342.171 408.781 342.229 409.542 342.325 410.295L336.137 412.751C336.369 414.112 336.667 415.454 337.042 416.77L343.689 416.336C343.928 417.064 344.193 417.781 344.483 418.487L339.148 422.458C339.726 423.708 340.369 424.925 341.071 426.109L347.369 423.976C347.785 424.616 348.226 425.237 348.686 425.847L344.56 431.061C345.439 432.12 346.366 433.135 347.351 434.098L352.884 430.406C353.454 430.918 354.035 431.407 354.642 431.877L352.002 437.995C353.116 438.789 354.281 439.521 355.484 440.197L359.873 435.193C360.554 435.535 361.249 435.852 361.958 436.149L360.991 442.742C362.267 443.216 363.579 443.624 364.925 443.966L367.877 437.988C368.249 438.065 368.62 438.146 368.999 438.212C369.378 438.278 369.753 438.326 370.131 438.377L370.903 444.999C372.282 445.128 373.657 445.186 375.021 445.168L376.323 438.631C377.091 438.591 377.852 438.524 378.606 438.433L381.062 444.62C382.422 444.389 383.768 444.091 385.08 443.716L384.65 437.069C385.378 436.83 386.091 436.565 386.797 436.274L390.772 441.609C392.022 441.032 393.239 440.389 394.419 439.686L392.286 433.392C392.926 432.973 393.548 432.535 394.158 432.076L399.371 436.201C400.43 435.322 401.445 434.396 402.408 433.41L398.717 427.877C399.228 427.311 399.717 426.726 400.188 426.12L406.305 428.763C407.096 427.649 407.831 426.484 408.508 425.281L403.507 420.891C403.853 420.211 404.166 419.513 404.463 418.807L411.056 419.774C411.53 418.494 411.934 417.182 412.28 415.84L406.302 412.887C406.383 412.516 406.46 412.145 406.526 411.766C406.592 411.387 406.64 411.012 406.691 410.634L413.313 409.862C413.442 408.479 413.497 407.108 413.482 405.744L413.497 405.736ZM370.782 428.013C358.767 425.932 350.682 414.465 352.759 402.45C354.837 390.434 366.308 382.35 378.323 384.43C390.338 386.511 398.423 397.979 396.342 409.99C394.261 422.005 382.793 430.09 370.782 428.009V428.013Z" fill="black"/>
<path d="M413.497 405.736L406.964 404.431C406.919 403.667 406.861 402.902 406.765 402.148L412.953 399.692C412.721 398.332 412.423 396.99 412.048 395.674L405.401 396.104C405.162 395.376 404.897 394.662 404.607 393.953L409.942 389.982C409.364 388.732 408.721 387.515 408.019 386.335L401.721 388.467C401.305 387.828 400.864 387.206 400.401 386.596L404.526 381.383C403.647 380.324 402.721 379.309 401.735 378.346L396.202 382.037C395.636 381.53 395.051 381.037 394.445 380.566L397.084 374.448C395.97 373.654 394.805 372.923 393.603 372.246L389.209 377.25C388.529 376.908 387.834 376.592 387.125 376.294L388.091 369.702C386.812 369.228 385.499 368.82 384.157 368.478L381.205 374.456C380.834 374.379 380.462 374.298 380.084 374.232C379.705 374.165 379.33 374.118 378.951 374.066L378.179 367.445C376.797 367.312 375.426 367.257 374.062 367.275L372.756 373.809C371.992 373.849 371.227 373.912 370.473 374.007L368.017 367.82C366.657 368.051 365.315 368.349 363.999 368.724L364.429 375.371C363.701 375.61 362.988 375.875 362.278 376.165L358.307 370.831C357.057 371.408 355.84 372.051 354.656 372.754L356.789 379.048C356.149 379.467 355.528 379.905 354.917 380.368L349.704 376.243C348.645 377.118 347.63 378.048 346.667 379.033L350.358 384.567C349.851 385.133 349.358 385.721 348.888 386.324L342.77 383.684C341.976 384.798 341.244 385.964 340.568 387.166L345.568 391.559C345.222 392.24 344.91 392.934 344.612 393.644L338.02 392.677C337.545 393.957 337.137 395.265 336.795 396.615L342.774 399.567C342.696 399.938 342.615 400.31 342.549 400.688C342.483 401.067 342.435 401.442 342.384 401.817L335.762 402.589C335.634 403.972 335.575 405.343 335.593 406.707L342.126 408.012C342.171 408.781 342.229 409.542 342.325 410.295L336.137 412.751C336.369 414.112 336.667 415.454 337.042 416.77L343.689 416.336C343.928 417.064 344.193 417.781 344.483 418.487L339.148 422.458C339.726 423.708 340.369 424.925 341.071 426.109L347.369 423.976C347.785 424.616 348.226 425.237 348.686 425.847L344.56 431.061C345.439 432.12 346.366 433.135 347.351 434.098L352.884 430.406C353.454 430.918 354.035 431.407 354.642 431.877L352.002 437.995C353.116 438.789 354.281 439.521 355.484 440.197L359.873 435.193C360.554 435.535 361.249 435.852 361.958 436.149L360.991 442.742C362.267 443.216 363.579 443.624 364.925 443.966L367.877 437.988C368.249 438.065 368.62 438.146 368.999 438.212C369.378 438.278 369.753 438.326 370.131 438.377L370.903 444.999C372.282 445.128 373.657 445.186 375.021 445.168L376.323 438.631C377.091 438.591 377.852 438.524 378.606 438.433L381.062 444.62C382.422 444.389 383.768 444.091 385.08 443.716L384.65 437.069C385.378 436.83 386.091 436.565 386.797 436.274L390.772 441.609C392.022 441.032 393.239 440.389 394.419 439.686L392.286 433.392C392.926 432.973 393.548 432.535 394.158 432.076L399.371 436.201C400.43 435.322 401.445 434.396 402.408 433.41L398.717 427.877C399.228 427.311 399.717 426.726 400.188 426.12L406.305 428.763C407.096 427.649 407.831 426.484 408.508 425.281L403.507 420.891C403.853 420.211 404.166 419.513 404.463 418.807L411.056 419.774C411.53 418.494 411.934 417.182 412.28 415.84L406.302 412.887C406.383 412.516 406.46 412.145 406.526 411.766C406.592 411.387 406.64 411.012 406.691 410.634L413.313 409.862C413.442 408.479 413.497 407.108 413.482 405.744L413.497 405.736ZM369.9 433.094C355.083 430.531 345.116 416.391 347.678 401.575C350.241 386.758 364.381 376.79 379.198 379.353C394.011 381.916 403.982 396.056 401.419 410.873C398.857 425.689 384.713 435.657 369.9 433.094Z" fill="black"/>
<path d="M378.98 380.628C364.87 378.187 351.402 387.68 348.961 401.791C346.52 415.902 356.013 429.369 370.123 431.81C384.234 434.252 397.702 424.759 400.143 410.648C402.584 396.537 393.091 383.07 378.98 380.628ZM370.76 428.138C358.674 426.046 350.542 414.508 352.634 402.427C354.726 390.342 366.263 382.209 378.348 384.301C390.433 386.393 398.566 397.927 396.474 410.012C394.382 422.097 382.848 430.23 370.763 428.138H370.76Z" fill="url(#paint8_linear_248_2)"/>
<path d="M374.3 386.742C367.597 386.742 362.159 392.176 362.159 398.883C362.159 402.716 363.94 406.133 366.715 408.358C367.854 409.444 369.638 411.8 369.991 415.037V403.77L369.279 403.058L370.707 398.883L372.135 403.058L371.423 403.77V415.037H373.588V396.305L372.876 395.593V391.418H375.728V395.593L375.016 396.305V415.037H377.181V401.478L377.897 398.883L378.613 401.478V415.037C378.966 411.8 380.75 409.444 381.889 408.358C384.664 406.133 386.445 402.716 386.445 398.883C386.445 392.179 381.011 386.742 374.304 386.742H374.3Z" fill="black"/>
<path d="M365.51 410.523C365.401 410.428 365.288 410.333 365.172 410.238C363.116 408.58 361.522 406.38 360.605 403.852H355.538C355.683 404.402 355.848 404.941 356.039 405.467L352.872 408.351C353.556 409.899 354.402 411.363 355.393 412.713L359.477 411.412C360.179 412.241 360.947 413.013 361.78 413.715L360.478 417.798C361.829 418.789 363.292 419.635 364.84 420.319L365.859 419.202C368.137 416.701 368.039 412.77 365.507 410.523H365.51Z" fill="black"/>
<path d="M393.064 403.852H387.997C387.08 406.38 385.486 408.58 383.431 410.238C383.314 410.333 383.201 410.428 383.092 410.523C380.564 412.77 380.461 416.701 382.739 419.202L383.759 420.319C385.307 419.635 386.77 418.789 388.121 417.798L386.819 413.715C387.648 413.013 388.42 412.244 389.122 411.412L393.206 412.713C394.196 411.363 395.043 409.899 395.727 408.351L392.56 405.467C392.751 404.938 392.916 404.398 393.061 403.852H393.064Z" fill="black"/>
<path d="M378.614 416.715H369.992V418.676H378.614V416.715Z" fill="black"/>
<path d="M374.943 422.315H373.663C372.58 422.315 371.702 421.437 371.702 420.354H376.9C376.9 421.437 376.022 422.315 374.939 422.315H374.943Z" fill="black"/>
<path d="M310.018 464.632L310.46 460.654L321.796 450.8H326.06L316.336 459.25L314.152 461.044L310.018 464.632ZM306.066 469L309.706 450.8H313.06L309.42 469H306.066ZM318.988 469L313.398 460.706L315.712 458.418L322.758 469H318.988Z" fill="#7F8AA9"/>
<path d="M324.721 465.505L324.961 464.26H328.996L328.741 465.505H324.721ZM333.314 462.865H338.549L338.234 464.47H332.999L333.314 462.865ZM332.564 467.365H338.504L338.174 469H330.299L332.399 458.5H340.064L339.734 460.135H334.004L332.564 467.365ZM340.347 469L342.447 458.5H344.052L348.837 466.645L348.222 466.57L349.827 458.5H351.762L349.662 469H348.057L343.287 460.855L343.902 460.93L342.282 469H340.347ZM357.816 469.15C356.766 469.15 355.861 468.96 355.101 468.58C354.341 468.2 353.751 467.675 353.331 467.005C352.921 466.325 352.716 465.545 352.716 464.665C352.716 463.775 352.866 462.95 353.166 462.19C353.476 461.42 353.916 460.75 354.486 460.18C355.056 459.61 355.741 459.165 356.541 458.845C357.351 458.515 358.251 458.35 359.241 458.35C360.201 458.35 361.036 458.5 361.746 458.8C362.456 459.1 363.026 459.525 363.456 460.075L362.046 461.245C361.696 460.825 361.281 460.525 360.801 460.345C360.331 460.155 359.781 460.06 359.151 460.06C358.471 460.06 357.856 460.175 357.306 460.405C356.756 460.625 356.286 460.94 355.896 461.35C355.506 461.76 355.206 462.24 354.996 462.79C354.786 463.33 354.681 463.915 354.681 464.545C354.681 465.115 354.806 465.62 355.056 466.06C355.306 466.5 355.681 466.84 356.181 467.08C356.681 467.32 357.301 467.44 358.041 467.44C358.591 467.44 359.106 467.35 359.586 467.17C360.076 466.98 360.536 466.7 360.966 466.33L361.731 467.86C361.211 468.27 360.606 468.59 359.916 468.82C359.236 469.04 358.536 469.15 357.816 469.15ZM359.961 467.56L360.741 463.63H362.586L361.731 467.86L359.961 467.56ZM364.078 469L366.178 458.5H368.128L366.028 469H364.078ZM368.868 469L370.968 458.5H372.573L377.358 466.645L376.743 466.57L378.348 458.5H380.283L378.183 469H376.578L371.808 460.855L372.423 460.93L370.803 469H368.868ZM384.026 462.865H389.261L388.946 464.47H383.711L384.026 462.865ZM383.276 467.365H389.216L388.886 469H381.011L383.111 458.5H390.776L390.446 460.135H384.716L383.276 467.365ZM394.075 462.865H399.31L398.995 464.47H393.76L394.075 462.865ZM393.325 467.365H399.265L398.935 469H391.06L393.16 458.5H400.825L400.495 460.135H394.765L393.325 467.365ZM401.109 469L403.209 458.5H407.289C408.559 458.5 409.539 458.78 410.229 459.34C410.929 459.89 411.279 460.665 411.279 461.665C411.279 462.545 411.074 463.305 410.664 463.945C410.264 464.575 409.689 465.065 408.939 465.415C408.189 465.755 407.299 465.925 406.269 465.925H402.849L403.854 465.04L403.074 469H401.109ZM408.009 469L405.864 465.19H407.934L410.079 469H408.009ZM403.809 465.265L403.149 464.32H406.329C407.279 464.32 408.014 464.11 408.534 463.69C409.054 463.27 409.314 462.655 409.314 461.845C409.314 461.275 409.119 460.85 408.729 460.57C408.349 460.29 407.799 460.15 407.079 460.15H404.019L405.039 459.175L403.809 465.265ZM412.081 469L414.181 458.5H416.131L414.031 469H412.081ZM416.871 469L418.971 458.5H420.576L425.361 466.645L424.746 466.57L426.351 458.5H428.286L426.186 469H424.581L419.811 460.855L420.426 460.93L418.806 469H416.871ZM434.339 469.15C433.289 469.15 432.384 468.96 431.624 468.58C430.864 468.2 430.274 467.675 429.854 467.005C429.444 466.325 429.239 465.545 429.239 464.665C429.239 463.775 429.389 462.95 429.689 462.19C429.999 461.42 430.439 460.75 431.009 460.18C431.579 459.61 432.264 459.165 433.064 458.845C433.874 458.515 434.774 458.35 435.764 458.35C436.724 458.35 437.559 458.5 438.269 458.8C438.979 459.1 439.549 459.525 439.979 460.075L438.569 461.245C438.219 460.825 437.804 460.525 437.324 460.345C436.854 460.155 436.304 460.06 435.674 460.06C434.994 460.06 434.379 460.175 433.829 460.405C433.279 460.625 432.809 460.94 432.419 461.35C432.029 461.76 431.729 462.24 431.519 462.79C431.309 463.33 431.204 463.915 431.204 464.545C431.204 465.115 431.329 465.62 431.579 466.06C431.829 466.5 432.204 466.84 432.704 467.08C433.204 467.32 433.824 467.44 434.564 467.44C435.114 467.44 435.629 467.35 436.109 467.17C436.599 466.98 437.059 466.7 437.489 466.33L438.254 467.86C437.734 468.27 437.129 468.59 436.439 468.82C435.759 469.04 435.059 469.15 434.339 469.15ZM436.484 467.56L437.264 463.63H439.109L438.254 467.86L436.484 467.56Z" fill="black"/>
<path d="M162.687 410.902L156.154 409.597C156.11 408.828 156.051 408.067 155.956 407.314L162.143 404.858C161.912 403.497 161.614 402.155 161.239 400.839L154.592 401.269C154.353 400.541 154.088 399.828 153.797 399.118L159.132 395.148C158.555 393.898 157.912 392.681 157.209 391.5L150.915 393.633C150.5 392.993 150.058 392.372 149.595 391.762L153.72 386.548C152.842 385.489 151.915 384.474 150.93 383.511L145.396 387.203C144.83 386.691 144.246 386.202 143.639 385.732L146.279 379.614C145.165 378.82 143.999 378.088 142.797 377.412L138.403 382.416C137.723 382.074 137.028 381.757 136.319 381.46L137.286 374.868C136.006 374.393 134.694 373.985 133.352 373.643L130.4 379.621C130.028 379.544 129.657 379.463 129.278 379.397C128.899 379.331 128.524 379.283 128.146 379.232L127.374 372.61C125.991 372.478 124.62 372.423 123.256 372.441L121.951 378.974C121.186 379.015 120.421 379.077 119.667 379.173L117.212 372.985C115.851 373.217 114.509 373.515 113.193 373.89L113.623 380.537C112.895 380.776 112.182 381.041 111.472 381.331L107.502 375.996C106.252 376.573 105.035 377.217 103.851 377.919L105.983 384.213C105.343 384.633 104.722 385.07 104.112 385.533L98.8983 381.408C97.8394 382.283 96.8247 383.213 95.8614 384.199L99.5527 389.732C99.0454 390.298 98.5527 390.883 98.0821 391.489L91.9642 388.85C91.1701 389.964 90.4384 391.129 89.7619 392.331L94.7621 396.725C94.4165 397.405 94.104 398.1 93.8062 398.81L87.214 397.843C86.7398 399.122 86.3317 400.435 85.9897 401.78L91.9679 404.733C91.8907 405.104 91.8098 405.475 91.7436 405.854C91.6774 406.233 91.6296 406.608 91.5782 406.986L84.9566 407.758C84.8279 409.141 84.7691 410.512 84.7875 411.876L91.3208 413.181C91.3649 413.95 91.4238 414.711 91.5193 415.468L85.3316 417.924C85.5632 419.285 85.861 420.627 86.2361 421.943L92.8834 421.509C93.1223 422.237 93.3871 422.954 93.6775 423.66L88.3428 427.631C88.92 428.881 89.5634 430.098 90.2656 431.278L96.5637 429.145C96.9791 429.785 97.4203 430.406 97.8799 431.017L93.7547 436.23C94.6334 437.289 95.5599 438.304 96.5453 439.267L102.079 435.576C102.648 436.087 103.229 436.576 103.836 437.046L101.196 443.164C102.31 443.958 103.476 444.69 104.678 445.367L109.068 440.363C109.748 440.705 110.443 441.024 111.152 441.319L110.185 447.911C111.461 448.385 112.774 448.789 114.119 449.135L117.072 443.157C117.443 443.234 117.814 443.315 118.193 443.381C118.572 443.447 118.947 443.495 119.326 443.547L120.098 450.168C121.476 450.297 122.851 450.352 124.215 450.337L125.517 443.8C126.285 443.76 127.046 443.697 127.8 443.602L130.256 449.789C131.616 449.558 132.962 449.26 134.275 448.885L133.844 442.238C134.572 441.999 135.286 441.734 135.992 441.444L139.966 446.778C141.216 446.201 142.433 445.558 143.613 444.855L141.481 438.561C142.121 438.142 142.746 437.704 143.352 437.245L148.566 441.37C149.625 440.491 150.639 439.565 151.603 438.579L147.911 433.046C148.422 432.476 148.911 431.895 149.382 431.289L155.5 433.932C156.29 432.818 157.026 431.653 157.702 430.451L152.702 426.061C153.047 425.38 153.36 424.682 153.658 423.976L160.25 424.943C160.724 423.663 161.129 422.355 161.474 421.009L155.496 418.057C155.577 417.685 155.654 417.314 155.72 416.935C155.787 416.557 155.834 416.178 155.886 415.803L162.507 415.031C162.636 413.648 162.691 412.277 162.676 410.913L162.687 410.902ZM119.09 438.256C104.274 435.693 94.3062 421.553 96.8688 406.736C99.4314 391.92 113.572 381.952 128.388 384.515C143.201 387.078 153.172 401.218 150.61 416.035C148.047 430.851 133.903 440.819 119.09 438.256Z" fill="black"/>
<path d="M128.172 385.794C114.061 383.353 100.594 392.846 98.1523 406.957C95.711 421.068 105.204 434.535 119.315 436.976C133.426 439.418 146.893 429.925 149.334 415.814C151.776 401.703 142.283 388.236 128.172 385.794ZM119.977 433.138C107.984 431.061 99.9134 419.616 101.987 407.622C104.061 395.629 115.513 387.559 127.506 389.633C139.499 391.71 147.57 403.155 145.496 415.148C143.419 427.142 131.973 435.212 119.98 433.134L119.977 433.138Z" fill="black"/>
<path d="M162.251 410.464L155.718 409.159C155.674 408.391 155.615 407.63 155.519 406.876L161.707 404.42C161.475 403.06 161.177 401.718 160.802 400.402L154.155 400.832C153.916 400.104 153.651 399.391 153.361 398.681L158.696 394.71C158.118 393.46 157.475 392.243 156.773 391.063L150.478 393.195C150.063 392.556 149.622 391.934 149.159 391.324L153.284 386.111C152.405 385.052 151.479 384.037 150.493 383.074L144.96 386.765C144.394 386.258 143.809 385.765 143.202 385.294L145.842 379.177C144.728 378.382 143.563 377.651 142.361 376.974L137.967 381.978C137.287 381.636 136.592 381.32 135.882 381.022L136.849 374.43C135.57 373.956 134.257 373.548 132.915 373.206L129.963 379.184C129.592 379.107 129.22 379.026 128.842 378.96C128.463 378.893 128.088 378.846 127.709 378.794L126.937 372.173C125.555 372.04 124.183 371.985 122.819 372.003L121.514 378.537C120.749 378.577 119.985 378.64 119.231 378.735L116.775 372.548C115.415 372.779 114.073 373.077 112.756 373.452L113.187 380.099C112.459 380.338 111.745 380.603 111.036 380.893L107.065 375.559C105.815 376.136 104.598 376.779 103.414 377.482L105.547 383.776C104.907 384.195 104.286 384.633 103.675 385.096L98.4618 380.971C97.4029 381.846 96.3882 382.776 95.4249 383.761L99.1162 389.295C98.6088 389.861 98.1162 390.445 97.6456 391.052L91.5277 388.412C90.7335 389.526 90.0019 390.692 89.3254 391.894L94.3256 396.287C93.98 396.968 93.6675 397.663 93.3697 398.372L86.7775 397.405C86.3032 398.685 85.8951 399.997 85.5532 401.343L91.5314 404.295C91.4542 404.666 91.3733 405.038 91.3071 405.416C91.2409 405.795 91.1931 406.17 91.1416 406.545L84.5201 407.317C84.3914 408.7 84.3326 410.071 84.351 411.435L90.8843 412.74C90.9284 413.509 90.9872 414.27 91.0828 415.027L84.8951 417.483C85.1267 418.843 85.4245 420.185 85.7995 421.502L92.4468 421.068C92.6858 421.796 92.9505 422.513 93.241 423.219L87.9062 427.189C88.4835 428.443 89.1269 429.656 89.8291 430.84L96.1271 428.708C96.5426 429.344 96.9838 429.969 97.4434 430.579L93.3182 435.793C94.1969 436.852 95.1234 437.866 96.1088 438.83L101.642 435.138C102.212 435.649 102.793 436.138 103.399 436.609L100.76 442.727C101.874 443.521 103.039 444.253 104.241 444.929L108.631 439.925C109.311 440.267 110.006 440.583 110.716 440.881L109.749 447.473C111.025 447.948 112.337 448.356 113.683 448.698L116.635 442.719C117.007 442.797 117.378 442.877 117.757 442.944C118.135 443.01 118.51 443.058 118.889 443.109L119.661 449.731C121.04 449.859 122.415 449.915 123.779 449.9L125.08 443.363C125.849 443.322 126.61 443.26 127.364 443.164L129.82 449.352C131.18 449.12 132.526 448.823 133.838 448.448L133.408 441.8C134.136 441.561 134.849 441.297 135.555 441.006L139.53 446.341C140.78 445.764 141.997 445.12 143.177 444.418L141.044 438.124C141.684 437.704 142.305 437.267 142.916 436.807L148.129 440.933C149.188 440.054 150.203 439.127 151.166 438.142L147.475 432.609C147.986 432.039 148.475 431.458 148.945 430.851L155.063 433.495C155.854 432.381 156.589 431.215 157.265 430.013L152.265 425.623C152.611 424.943 152.923 424.244 153.221 423.538L159.813 424.505C160.288 423.226 160.692 421.917 161.038 420.571L155.06 417.615C155.14 417.244 155.218 416.873 155.284 416.494C155.35 416.115 155.398 415.737 155.449 415.362L162.071 414.59C162.2 413.207 162.255 411.836 162.24 410.472L162.251 410.464ZM118.657 437.818C103.841 435.256 93.8734 421.116 96.436 406.299C98.9986 391.482 113.139 381.515 127.956 384.077C142.769 386.64 152.74 400.78 150.177 415.597C147.614 430.414 133.47 440.381 118.657 437.818Z" fill="black"/>
<path d="M127.735 385.357C113.624 382.916 100.157 392.409 97.7158 406.519C95.2745 420.63 104.768 434.098 118.878 436.539C132.989 438.98 146.457 429.487 148.898 415.376C151.339 401.266 141.846 387.798 127.735 385.357ZM119.522 432.818C107.462 430.73 99.3482 419.222 101.436 407.167C103.521 395.107 115.033 386.993 127.092 389.081C139.151 391.17 147.265 402.677 145.177 414.737C143.092 426.796 131.581 434.907 119.525 432.822L119.522 432.818Z" fill="black"/>
<path d="M162.497 410.736L155.964 409.431C155.919 408.667 155.861 407.902 155.765 407.148L161.953 404.692C161.721 403.332 161.423 401.99 161.048 400.674L154.401 401.104C154.162 400.376 153.897 399.662 153.607 398.953L158.942 394.982C158.364 393.732 157.721 392.515 157.019 391.335L150.721 393.467C150.305 392.828 149.864 392.206 149.401 391.596L153.526 386.383C152.647 385.324 151.721 384.309 150.735 383.346L145.202 387.037C144.636 386.53 144.051 386.037 143.445 385.566L146.084 379.448C144.97 378.654 143.805 377.923 142.603 377.246L138.209 382.25C137.529 381.908 136.834 381.592 136.125 381.294L137.091 374.702C135.812 374.228 134.499 373.82 133.157 373.478L130.205 379.456C129.834 379.379 129.462 379.298 129.084 379.232C128.705 379.165 128.33 379.118 127.951 379.066L127.179 372.445C125.797 372.312 124.426 372.257 123.062 372.275L121.756 378.809C120.992 378.849 120.227 378.912 119.473 379.007L117.017 372.82C115.657 373.051 114.315 373.349 112.999 373.724L113.429 380.371C112.701 380.61 111.988 380.875 111.278 381.165L107.307 375.831C106.057 376.408 104.84 377.051 103.656 377.754L105.789 384.048C105.149 384.467 104.528 384.905 103.917 385.368L98.704 381.243C97.6451 382.118 96.6304 383.048 95.6671 384.033L99.3584 389.567C98.851 390.133 98.3584 390.721 97.8878 391.324L91.7699 388.684C90.9757 389.798 90.2441 390.964 89.5676 392.166L94.5678 396.559C94.2222 397.24 93.9097 397.934 93.6119 398.644L87.0197 397.677C86.5454 398.957 86.1373 400.265 85.7954 401.615L91.7736 404.567C91.6964 404.938 91.6155 405.31 91.5493 405.688C91.4831 406.067 91.4353 406.442 91.3838 406.817L84.7623 407.589C84.6336 408.972 84.5748 410.343 84.5931 411.707L91.1265 413.012C91.1706 413.781 91.2294 414.542 91.325 415.295L85.1373 417.751C85.3689 419.112 85.6667 420.454 86.0417 421.77L92.689 421.336C92.928 422.064 93.1927 422.781 93.4832 423.487L88.1484 427.458C88.7257 428.708 89.3691 429.925 90.0713 431.109L96.3693 428.976C96.7848 429.616 97.226 430.237 97.6855 430.847L93.5604 436.061C94.4391 437.12 95.3656 438.135 96.3509 439.098L101.884 435.406C102.454 435.918 103.035 436.407 103.642 436.877L101.002 442.995C102.116 443.789 103.281 444.521 104.484 445.197L108.873 440.193C109.554 440.535 110.249 440.852 110.958 441.149L109.991 447.742C111.267 448.216 112.579 448.624 113.925 448.966L116.877 442.988C117.249 443.065 117.62 443.146 117.999 443.212C118.378 443.278 118.753 443.326 119.131 443.377L119.903 449.999C121.282 450.128 122.657 450.186 124.021 450.168L125.323 443.631C126.091 443.591 126.852 443.524 127.606 443.433L130.062 449.62C131.422 449.389 132.768 449.091 134.08 448.716L133.65 442.069C134.378 441.83 135.091 441.565 135.797 441.274L139.772 446.609C141.022 446.032 142.239 445.389 143.419 444.686L141.286 438.392C141.926 437.973 142.548 437.535 143.158 437.076L148.371 441.201C149.43 440.322 150.445 439.396 151.408 438.41L147.717 432.877C148.228 432.311 148.717 431.726 149.188 431.12L155.305 433.763C156.096 432.649 156.831 431.484 157.508 430.281L152.507 425.891C152.853 425.211 153.166 424.513 153.463 423.807L160.056 424.774C160.53 423.494 160.934 422.182 161.28 420.84L155.302 417.887C155.383 417.516 155.46 417.145 155.526 416.766C155.592 416.387 155.64 416.012 155.691 415.634L162.313 414.862C162.442 413.479 162.497 412.108 162.482 410.744L162.497 410.736ZM119.782 433.013C107.767 430.932 99.6819 419.465 101.759 407.45C103.837 395.434 115.308 387.35 127.323 389.43C139.338 391.511 147.423 402.979 145.342 414.99C143.261 427.005 131.793 435.09 119.782 433.009V433.013Z" fill="black"/>
<path d="M162.497 410.736L155.964 409.431C155.919 408.667 155.861 407.902 155.765 407.148L161.953 404.692C161.721 403.332 161.423 401.99 161.048 400.674L154.401 401.104C154.162 400.376 153.897 399.662 153.607 398.953L158.942 394.982C158.364 393.732 157.721 392.515 157.019 391.335L150.721 393.467C150.305 392.828 149.864 392.206 149.401 391.596L153.526 386.383C152.647 385.324 151.721 384.309 150.735 383.346L145.202 387.037C144.636 386.53 144.051 386.037 143.445 385.566L146.084 379.448C144.97 378.654 143.805 377.923 142.603 377.246L138.209 382.25C137.529 381.908 136.834 381.592 136.125 381.294L137.091 374.702C135.812 374.228 134.499 373.82 133.157 373.478L130.205 379.456C129.834 379.379 129.462 379.298 129.084 379.232C128.705 379.165 128.33 379.118 127.951 379.066L127.179 372.445C125.797 372.312 124.426 372.257 123.062 372.275L121.756 378.809C120.992 378.849 120.227 378.912 119.473 379.007L117.017 372.82C115.657 373.051 114.315 373.349 112.999 373.724L113.429 380.371C112.701 380.61 111.988 380.875 111.278 381.165L107.307 375.831C106.057 376.408 104.84 377.051 103.656 377.754L105.789 384.048C105.149 384.467 104.528 384.905 103.917 385.368L98.704 381.243C97.6451 382.118 96.6304 383.048 95.6671 384.033L99.3584 389.567C98.851 390.133 98.3584 390.721 97.8878 391.324L91.7699 388.684C90.9757 389.798 90.2441 390.964 89.5676 392.166L94.5678 396.559C94.2222 397.24 93.9097 397.934 93.6119 398.644L87.0197 397.677C86.5454 398.957 86.1373 400.265 85.7954 401.615L91.7736 404.567C91.6964 404.938 91.6155 405.31 91.5493 405.688C91.4831 406.067 91.4353 406.442 91.3838 406.817L84.7623 407.589C84.6336 408.972 84.5748 410.343 84.5931 411.707L91.1265 413.012C91.1706 413.781 91.2294 414.542 91.325 415.295L85.1373 417.751C85.3689 419.112 85.6667 420.454 86.0417 421.77L92.689 421.336C92.928 422.064 93.1927 422.781 93.4832 423.487L88.1484 427.458C88.7257 428.708 89.3691 429.925 90.0713 431.109L96.3693 428.976C96.7848 429.616 97.226 430.237 97.6855 430.847L93.5604 436.061C94.4391 437.12 95.3656 438.135 96.3509 439.098L101.884 435.406C102.454 435.918 103.035 436.407 103.642 436.877L101.002 442.995C102.116 443.789 103.281 444.521 104.484 445.197L108.873 440.193C109.554 440.535 110.249 440.852 110.958 441.149L109.991 447.742C111.267 448.216 112.579 448.624 113.925 448.966L116.877 442.988C117.249 443.065 117.62 443.146 117.999 443.212C118.378 443.278 118.753 443.326 119.131 443.377L119.903 449.999C121.282 450.128 122.657 450.186 124.021 450.168L125.323 443.631C126.091 443.591 126.852 443.524 127.606 443.433L130.062 449.62C131.422 449.389 132.768 449.091 134.08 448.716L133.65 442.069C134.378 441.83 135.091 441.565 135.797 441.274L139.772 446.609C141.022 446.032 142.239 445.389 143.419 444.686L141.286 438.392C141.926 437.973 142.548 437.535 143.158 437.076L148.371 441.201C149.43 440.322 150.445 439.396 151.408 438.41L147.717 432.877C148.228 432.311 148.717 431.726 149.188 431.12L155.305 433.763C156.096 432.649 156.831 431.484 157.508 430.281L152.507 425.891C152.853 425.211 153.166 424.513 153.463 423.807L160.056 424.774C160.53 423.494 160.934 422.182 161.28 420.84L155.302 417.887C155.383 417.516 155.46 417.145 155.526 416.766C155.592 416.387 155.64 416.012 155.691 415.634L162.313 414.862C162.442 413.479 162.497 412.108 162.482 410.744L162.497 410.736ZM118.9 438.094C104.083 435.531 94.1156 421.391 96.6782 406.575C99.2408 391.758 113.381 381.79 128.198 384.353C143.011 386.916 152.982 401.056 150.419 415.873C147.857 430.689 133.713 440.657 118.9 438.094Z" fill="white"/>
<path d="M127.98 385.628C113.87 383.187 100.402 392.68 97.9609 406.791C95.5196 420.902 105.013 434.369 119.123 436.81C133.234 439.252 146.702 429.759 149.143 415.648C151.584 401.537 142.091 388.07 127.98 385.628ZM119.76 433.138C107.674 431.046 99.5418 419.508 101.634 407.427C103.726 395.342 115.263 387.209 127.348 389.301C139.433 391.393 147.566 402.927 145.474 415.012C143.382 427.097 131.848 435.23 119.763 433.138H119.76Z" fill="url(#paint9_linear_248_2)"/>
<path d="M123.3 391.742C116.597 391.742 111.159 397.176 111.159 403.883C111.159 407.716 112.94 411.133 115.715 413.358C116.854 414.444 118.638 416.8 118.991 420.037V408.77L118.279 408.058L119.707 403.883L121.135 408.058L120.423 408.77V420.037H122.588V401.305L121.876 400.593V396.418H124.728V400.593L124.016 401.305V420.037H126.181V406.478L126.897 403.883L127.613 406.478V420.037C127.966 416.8 129.75 414.444 130.889 413.358C133.664 411.133 135.445 407.716 135.445 403.883C135.445 397.179 130.011 391.742 123.304 391.742H123.3Z" fill="white"/>
<path d="M114.51 415.523C114.401 415.428 114.288 415.333 114.172 415.238C112.116 413.58 110.522 411.38 109.605 408.852H104.538C104.683 409.402 104.848 409.941 105.039 410.467L101.872 413.351C102.556 414.899 103.402 416.363 104.393 417.713L108.477 416.412C109.179 417.241 109.947 418.013 110.78 418.715L109.478 422.798C110.829 423.789 112.292 424.635 113.84 425.319L114.859 424.202C117.137 421.701 117.039 417.77 114.507 415.523H114.51Z" fill="white"/>
<path d="M142.064 408.852H136.997C136.08 411.38 134.486 413.58 132.431 415.238C132.314 415.333 132.201 415.428 132.092 415.523C129.564 417.77 129.461 421.701 131.739 424.202L132.759 425.319C134.307 424.635 135.77 423.789 137.121 422.798L135.819 418.715C136.648 418.013 137.42 417.244 138.122 416.412L142.206 417.713C143.196 416.363 144.043 414.899 144.727 413.351L141.56 410.467C141.751 409.938 141.916 409.398 142.061 408.852H142.064Z" fill="white"/>
<path d="M127.614 421.715H118.992V423.676H127.614V421.715Z" fill="white"/>
<path d="M123.943 427.315H122.663C121.58 427.315 120.702 426.437 120.702 425.354H125.9C125.9 426.437 125.022 427.315 123.939 427.315H123.943Z" fill="white"/>
<path d="M59.018 469.632L59.46 465.654L70.796 455.8H75.06L65.336 464.25L63.152 466.044L59.018 469.632ZM55.066 474L58.706 455.8H62.06L58.42 474H55.066ZM67.988 474L62.398 465.706L64.712 463.418L71.758 474H67.988Z" fill="#7F8AA9"/>
<path d="M73.7214 470.505L73.9614 469.26H77.9964L77.7414 470.505H73.7214Z" fill="black"/>
<path d="M82.3136 467.865H87.5486L87.2336 469.47H81.9986L82.3136 467.865ZM81.5636 472.365H87.5036L87.1736 474H79.2986L81.3986 463.5H89.0636L88.7336 465.135H83.0036L81.5636 472.365ZM89.3474 474L91.4474 463.5H93.0524L97.8374 471.645L97.2224 471.57L98.8274 463.5H100.762L98.6624 474H97.0574L92.2874 465.855L92.9024 465.93L91.2824 474H89.3474ZM106.816 474.15C105.766 474.15 104.861 473.96 104.101 473.58C103.341 473.2 102.751 472.675 102.331 472.005C101.921 471.325 101.716 470.545 101.716 469.665C101.716 468.775 101.866 467.95 102.166 467.19C102.476 466.42 102.916 465.75 103.486 465.18C104.056 464.61 104.741 464.165 105.541 463.845C106.351 463.515 107.251 463.35 108.241 463.35C109.201 463.35 110.036 463.5 110.746 463.8C111.456 464.1 112.026 464.525 112.456 465.075L111.046 466.245C110.696 465.825 110.281 465.525 109.801 465.345C109.331 465.155 108.781 465.06 108.151 465.06C107.471 465.06 106.856 465.175 106.306 465.405C105.756 465.625 105.286 465.94 104.896 466.35C104.506 466.76 104.206 467.24 103.996 467.79C103.786 468.33 103.681 468.915 103.681 469.545C103.681 470.115 103.806 470.62 104.056 471.06C104.306 471.5 104.681 471.84 105.181 472.08C105.681 472.32 106.301 472.44 107.041 472.44C107.591 472.44 108.106 472.35 108.586 472.17C109.076 471.98 109.536 471.7 109.966 471.33L110.731 472.86C110.211 473.27 109.606 473.59 108.916 473.82C108.236 474.04 107.536 474.15 106.816 474.15ZM108.961 472.56L109.741 468.63H111.586L110.731 472.86L108.961 472.56ZM113.078 474L115.178 463.5H117.128L115.028 474H113.078ZM117.868 474L119.968 463.5H121.573L126.358 471.645L125.743 471.57L127.348 463.5H129.283L127.183 474H125.578L120.808 465.855L121.423 465.93L119.803 474H117.868ZM133.026 467.865H138.261L137.946 469.47H132.711L133.026 467.865ZM132.276 472.365H138.216L137.886 474H130.011L132.111 463.5H139.776L139.446 465.135H133.716L132.276 472.365ZM143.075 467.865H148.31L147.995 469.47H142.76L143.075 467.865ZM142.325 472.365H148.265L147.935 474H140.06L142.16 463.5H149.825L149.495 465.135H143.765L142.325 472.365ZM150.109 474L152.209 463.5H156.289C157.559 463.5 158.539 463.78 159.229 464.34C159.929 464.89 160.279 465.665 160.279 466.665C160.279 467.545 160.074 468.305 159.664 468.945C159.264 469.575 158.689 470.065 157.939 470.415C157.189 470.755 156.299 470.925 155.269 470.925H151.849L152.854 470.04L152.074 474H150.109ZM157.009 474L154.864 470.19H156.934L159.079 474H157.009ZM152.809 470.265L152.149 469.32H155.329C156.279 469.32 157.014 469.11 157.534 468.69C158.054 468.27 158.314 467.655 158.314 466.845C158.314 466.275 158.119 465.85 157.729 465.57C157.349 465.29 156.799 465.15 156.079 465.15H153.019L154.039 464.175L152.809 470.265ZM161.081 474L163.181 463.5H165.131L163.031 474H161.081ZM165.871 474L167.971 463.5H169.576L174.361 471.645L173.746 471.57L175.351 463.5H177.286L175.186 474H173.581L168.811 465.855L169.426 465.93L167.806 474H165.871ZM183.339 474.15C182.289 474.15 181.384 473.96 180.624 473.58C179.864 473.2 179.274 472.675 178.854 472.005C178.444 471.325 178.239 470.545 178.239 469.665C178.239 468.775 178.389 467.95 178.689 467.19C178.999 466.42 179.439 465.75 180.009 465.18C180.579 464.61 181.264 464.165 182.064 463.845C182.874 463.515 183.774 463.35 184.764 463.35C185.724 463.35 186.559 463.5 187.269 463.8C187.979 464.1 188.549 464.525 188.979 465.075L187.569 466.245C187.219 465.825 186.804 465.525 186.324 465.345C185.854 465.155 185.304 465.06 184.674 465.06C183.994 465.06 183.379 465.175 182.829 465.405C182.279 465.625 181.809 465.94 181.419 466.35C181.029 466.76 180.729 467.24 180.519 467.79C180.309 468.33 180.204 468.915 180.204 469.545C180.204 470.115 180.329 470.62 180.579 471.06C180.829 471.5 181.204 471.84 181.704 472.08C182.204 472.32 182.824 472.44 183.564 472.44C184.114 472.44 184.629 472.35 185.109 472.17C185.599 471.98 186.059 471.7 186.489 471.33L187.254 472.86C186.734 473.27 186.129 473.59 185.439 473.82C184.759 474.04 184.059 474.15 183.339 474.15ZM185.484 472.56L186.264 468.63H188.109L187.254 472.86L185.484 472.56Z" fill="white"/>
</g>
<defs>
<linearGradient id="paint0_linear_248_2" x1="375" y1="346.66" x2="375" y2="506.14" gradientUnits="userSpaceOnUse">
<stop stop-color="#FFD549"/>
<stop offset="1" stop-color="#E37727"/>
</linearGradient>
<linearGradient id="paint1_linear_248_2" x1="125" y1="333.64" x2="125" y2="498.5" gradientUnits="userSpaceOnUse">
<stop stop-color="#4F5668"/>
<stop offset="1" stop-color="#181D28"/>
</linearGradient>
<linearGradient id="paint2_linear_248_2" x1="250.618" y1="95.9912" x2="250.618" y2="213.311" gradientUnits="userSpaceOnUse">
<stop stop-color="#424858"/>
<stop offset="1" stop-color="#8F9BBE"/>
</linearGradient>
<radialGradient id="paint3_radial_248_2" cx="0" cy="0" r="1" gradientUnits="userSpaceOnUse" gradientTransform="translate(245.095 137.188) scale(42.2006 42.2007)">
<stop stop-color="#FFD549"/>
<stop offset="1" stop-color="#E37727"/>
</radialGradient>
<linearGradient id="paint4_linear_248_2" x1="218.17" y1="148.441" x2="218.17" y2="199.76" gradientUnits="userSpaceOnUse">
<stop stop-color="#4F5668"/>
<stop offset="1" stop-color="#181D28"/>
</linearGradient>
<linearGradient id="paint5_linear_248_2" x1="281.937" y1="148.441" x2="281.937" y2="199.76" gradientUnits="userSpaceOnUse">
<stop stop-color="#4F5668"/>
<stop offset="1" stop-color="#181D28"/>
</linearGradient>
<linearGradient id="paint6_linear_248_2" x1="250.049" y1="148.441" x2="250.049" y2="199.76" gradientUnits="userSpaceOnUse">
<stop stop-color="#4F5668"/>
<stop offset="1" stop-color="#181D28"/>
</linearGradient>
<linearGradient id="paint7_linear_248_2" x1="250.05" y1="148.441" x2="250.05" y2="199.76" gradientUnits="userSpaceOnUse">
<stop stop-color="#4F5668"/>
<stop offset="1" stop-color="#181D28"/>
</linearGradient>
<linearGradient id="paint8_linear_248_2" x1="374.552" y1="380.246" x2="374.552" y2="432.193" gradientUnits="userSpaceOnUse">
<stop stop-color="#424858"/>
<stop offset="1" stop-color="#8F9BBE"/>
</linearGradient>
<linearGradient id="paint9_linear_248_2" x1="123.552" y1="385.246" x2="123.552" y2="437.193" gradientUnits="userSpaceOnUse">
<stop stop-color="#424858"/>
<stop offset="1" stop-color="#8F9BBE"/>
</linearGradient>
<clipPath id="clip0_248_2">
<rect width="500" height="500" fill="white"/>
</clipPath>
</defs>
</svg>
