<svg width="433" height="527" viewBox="0 0 433 527" fill="none" xmlns="http://www.w3.org/2000/svg">
<path d="M28.395 461.38C28.915 462.69 28.525 463.48 27.485 463.21C26.435 462.95 25.135 461.77 24.615 460.6C21.995 458.11 15.605 461.12 13.255 463.08C8.425 466.99 5.67501 471.71 4.24501 477.7C8.81501 476.4 20.705 462.56 20.705 462.56C21.225 462.04 22.405 462.43 23.575 463.6C24.485 464.64 25.015 465.82 24.625 466.47C24.355 467.13 22.795 470.52 23.575 474.18C24.095 477.32 41.075 463.08 41.345 462.95C41.865 462.43 42.905 461.77 43.955 462.81C44.995 463.99 44.865 465.03 44.345 465.55C35.725 473.26 30.635 477.83 27.105 479.66C21.095 482.79 16.525 480.97 16.655 474.57C11.955 479 7.12501 483.06 4.24501 481.75C3.19501 481.36 2.415 480.58 1.625 479.79C0.324998 478.09 -0.195 476.26 0.0650002 474.3C0.195 472.74 0.715003 471.03 1.505 469.33C3.205 465.68 6.20501 461.63 9.60501 458.89C15.465 454.08 26.175 453.81 28.395 461.38Z" fill="url(#paint0_linear_741_19)"/>
<path d="M69.815 415.01C70.205 414.36 71.515 414.75 72.555 415.8C73.735 416.84 74.2551 418.28 73.8651 418.94L45.265 465.31C52.445 459.82 59.765 456.56 60.545 465.17C60.675 466.35 60.805 474.84 60.805 474.84C61.335 475.5 65.515 474.45 77.005 463.74C77.525 463.22 78.315 462.05 79.355 463.09C80.405 464.27 80.405 465.17 79.885 465.71C66.955 477.72 60.685 480.73 57.675 477.59C54.545 474.2 55.585 468.06 55.195 463.49C54.805 460.22 34.035 483.6 33.905 483.73C33.515 484.26 32.335 483.87 31.285 482.82C30.105 481.78 29.585 480.34 29.985 479.69L69.815 415.01Z" fill="url(#paint1_linear_741_19)"/>
<path d="M81.4649 452.89C81.7249 452.24 83.0349 452.62 84.0749 453.68C85.2549 454.72 85.9049 456.03 85.5149 456.81L83.1649 460.86C87.2149 456.95 91.135 453.68 93.615 452.77C101.715 450.03 100.415 458.91 97.7949 466.87C98.1849 466.61 98.7049 466.35 99.1049 466.22C100.285 465.7 101.325 465.31 102.235 465.31C104.325 465.17 106.025 466.22 107.205 468.7C107.855 470.14 107.855 472.36 106.815 475.36C106.685 475.63 120.785 464 120.925 464C121.445 463.48 122.625 462.04 123.665 463.21C124.845 464.26 124.705 465.04 124.185 465.56C124.055 465.7 92.8349 498.6 102.635 471.71C102.765 471.18 102.895 470.8 103.025 470.26L102.505 470.53C98.9749 472.36 94.4049 476.15 93.4949 477.71V477.85C93.1049 478.63 91.9249 478.37 90.7549 477.33C89.5749 476.28 89.0549 474.84 89.3149 474.19C89.3149 474.06 97.2849 457.08 96.8849 457.21C89.8349 459.7 71.025 482.68 70.895 482.81C70.505 483.34 69.3349 482.95 68.2849 482.03C67.2449 480.99 66.5849 479.54 66.9849 478.89L81.4649 452.89Z" fill="url(#paint2_linear_741_19)"/>
<path d="M143.135 461.38C143.655 462.69 143.265 463.48 142.225 463.21C141.175 462.95 139.875 461.77 139.345 460.6C136.735 458.11 130.335 461.12 127.985 463.08C123.155 466.99 120.405 471.71 118.975 477.7C123.545 476.4 135.435 462.56 135.435 462.56C135.955 462.04 137.135 462.43 138.305 463.6C139.215 464.64 139.745 465.82 139.345 466.47C139.085 467.13 137.525 470.52 138.305 474.18C138.825 477.32 155.805 463.08 156.065 462.95C156.595 462.43 157.635 461.77 158.685 462.81C159.725 463.99 159.595 465.03 159.075 465.55C150.455 473.26 145.365 477.83 141.835 479.66C135.825 482.79 131.255 480.97 131.385 474.57C126.685 479 121.855 483.06 118.975 481.75C117.925 481.36 117.145 480.58 116.365 479.79C115.055 478.09 114.535 476.26 114.795 474.3C114.925 472.74 115.445 471.03 116.235 469.33C117.935 465.68 120.935 461.63 124.335 458.89C130.205 454.08 140.915 453.81 143.135 461.38Z" fill="url(#paint3_linear_741_19)"/>
<path d="M243.205 426.25C242.555 426.63 241.115 425.98 240.205 424.81C239.155 423.63 238.895 422.32 239.685 421.93C244.515 419.19 249.345 410.44 250.785 401.95C251.305 398.82 251.305 395.81 250.655 393.2C250.265 391.24 249.345 389.68 248.045 388.77C244.905 386.67 239.685 386.15 231.325 388.38L230.145 388.65C212.635 393.61 194.225 407.2 181.035 423.52C168.105 439.58 160.395 458.27 164.315 473.28L164.445 473.8C165.225 476.28 166.145 478.11 167.445 479.42C170.835 482.95 176.715 483.87 183.905 482.81C191.615 481.77 200.495 478.38 209.245 473.67C225.045 465.31 240.195 452.9 247.385 442.32C247.775 441.67 249.085 442.06 250.125 443.23C251.305 444.27 251.825 445.58 251.425 446.24C250.905 447.02 240.065 465.04 227.525 483.86C230.145 485.82 232.235 489.48 233.535 495.09C233.925 496.26 233.145 496.79 232.095 496.26C230.915 495.74 229.745 494.3 229.485 493.26C228.575 489.73 227.135 487.77 225.435 486.86C212.635 505.93 198.525 524.87 192.265 526.43C189.125 527.22 187.295 525.78 186.385 522.39C185.475 518.99 189.915 509.71 196.445 500.97C202.845 492.22 211.205 483.99 218.255 482.16C219.695 481.77 220.995 481.64 222.305 481.77C226.355 475.76 230.275 469.75 233.665 464.4C227.395 469.36 220.075 474.2 212.765 478.11C203.885 482.81 194.875 486.21 186.905 487.38C178.415 488.56 170.845 486.99 165.615 481.51C163.265 479.02 161.435 475.89 160.385 472.1L160.125 471.45C155.945 455.38 163.785 436.06 177.105 419.47C190.435 403.02 209.105 389.3 226.875 384.2L228.055 383.94C237.325 381.45 243.855 382.37 248.165 385.38C251.695 387.86 253.915 391.25 254.825 395.04C255.605 398.18 255.605 401.71 255.085 405.23C253.515 414.11 248.295 423.37 243.205 426.25ZM190.955 521.08C197.095 517.16 207.805 503.05 218.255 487.77C212.255 490.78 205.715 497.7 200.365 504.88C195.785 511.02 192.265 517.15 190.955 521.08Z" fill="url(#paint4_linear_741_19)"/>
<path d="M270.945 464.91C264.805 468.05 257.875 468.82 257.495 468.82C248.615 487.89 283.875 471.7 287.925 464.39C288.315 463.6 289.625 462.69 290.795 463.73C291.845 464.78 291.845 465.3 291.445 466.08C287.785 472.48 267.415 486.6 258.405 481.5C253.965 479.01 251.225 473.79 252.265 468.7C252.915 465.43 254.885 462.04 257.495 459.03C260.105 456.16 263.115 453.41 265.985 451.33C269.775 448.71 273.305 447.15 274.735 447.41C275.915 447.68 276.955 448.32 277.875 449.37C279.175 450.82 279.695 452.51 279.435 454.08C279.305 455.25 278.785 456.43 278.135 457.73C276.695 460.47 274.075 463.35 270.945 464.91ZM261.675 462.82C263.505 462.3 265.465 461.52 267.555 460.61C270.295 459.17 272.645 456.43 274.085 453.94C274.345 453.42 274.475 453.03 274.735 452.5C273.295 453.16 271.605 454.2 269.645 455.64C267.025 457.6 264.025 460.07 261.675 462.82Z" fill="url(#paint5_linear_741_19)"/>
<path d="M292.115 456.29C292.505 455.64 293.815 455.91 294.855 456.95C296.035 457.99 296.555 459.43 296.165 460.08L292.895 465.96C299.945 460.08 307.655 454.34 310.525 455.12H310.785C314.705 456.29 315.355 458.78 314.435 462.04C314.045 463.48 313.135 465.17 312.215 467.13C310.515 470.52 308.555 474.31 308.555 474.31C312.735 477.05 326.845 464.64 326.965 464.64C327.355 464.12 328.795 462.43 329.845 463.6C331.025 464.64 330.235 464.91 329.715 465.56C329.715 465.56 315.475 482.42 308.685 477.97C302.805 474.18 305.685 468.43 308.165 463.35C308.685 462.3 309.205 461.25 309.605 460.21C302.165 464.12 284.785 480.71 284.265 481.24C283.875 481.76 282.695 481.37 281.645 480.45C280.605 479.28 279.945 477.97 280.345 477.32L292.115 456.29Z" fill="url(#paint6_linear_741_19)"/>
<path d="M345.165 466.74C344.775 467.53 343.605 467.26 342.555 466.22C341.375 465.17 340.725 463.73 340.985 463.08C341.115 463.08 343.205 458.51 342.685 458.51C340.205 458.38 334.845 461.9 330.805 466.48C329.235 468.18 327.925 470.01 326.885 471.84C325.975 473.53 325.445 475.36 325.315 476.93C325.315 478.1 325.575 479.15 326.225 479.8C331.715 484.63 358.485 464.52 358.615 464.52C359.145 464.39 360.315 462.82 361.235 463.08C362.275 464.26 362.675 465.56 362.145 466.08C362.015 466.08 333.805 490.24 325.045 482.42C322.175 479.8 320.995 476.93 321.125 474.06C321.125 471.96 321.775 470.01 322.825 468.05C323.875 466.08 325.305 464.26 326.875 462.43C331.185 457.59 337.065 453.8 340.065 453.93C351.175 454.33 345.165 466.74 345.165 466.74Z" fill="url(#paint7_linear_741_19)"/>
<path d="M429.045 489.34C430.085 489.47 431.395 490.51 432.045 491.82C432.695 492.99 432.575 493.9 431.525 493.9C403.835 491.55 383.455 492.07 368.705 494.17C359.955 508.93 350.155 523.16 345.715 523.16C339.705 523.03 334.475 519.77 331.865 515.19C330.425 512.58 329.905 509.57 330.825 506.7C331.735 504.08 333.695 501.48 337.225 498.99C342.575 495.2 351.465 491.81 365.045 489.72C368.445 483.98 371.705 478.23 374.445 473.27C370.395 476.79 366.215 479.53 363.475 479.28C362.295 479.15 361.385 478.89 360.475 478.37C357.865 476.93 356.425 474.71 356.425 471.97C356.295 470.41 356.815 468.44 357.725 466.35C359.425 462.17 362.815 457.08 366.995 452.11C367.525 451.46 368.825 451.98 369.875 453.02C370.915 454.2 371.445 455.51 370.915 456.16C366.735 460.99 363.475 465.96 361.775 470.01C361.515 470.53 361.255 473.4 362.035 473.92C371.045 475.89 386.455 453.68 385.415 452.89V453.02C385.935 452.37 386.975 452.76 388.155 453.81C389.195 454.85 389.855 456.16 389.455 456.81L386.585 461.9L386.455 462.04C386.455 462.17 379.795 474.97 371.825 488.95C386.065 487.37 404.885 487.25 429.045 489.34ZM361.775 495.34C351.985 497.44 345.185 500.18 340.875 503.32C337.605 505.53 335.785 508.02 334.995 510.23C334.345 512.33 334.605 514.03 335.255 515.32C336.435 517.15 339.305 518.46 342.965 518.59C346.495 518.59 354.205 507.88 361.775 495.34Z" fill="url(#paint8_linear_741_19)"/>
<path d="M171.535 0H225.535C235.785 0 244.965 6.34 248.595 15.93L383.635 372.48H329.635C319.385 372.48 310.205 366.14 306.575 356.55L171.535 0Z" fill="url(#paint9_linear_741_19)"/>
<path d="M154.945 372.42L125.065 276.5C122.205 267.33 113.725 261.09 104.125 261.09H101.345C91.3249 261.09 82.455 267.56 79.395 277.1L48.8049 372.43L84.5349 372.49L85.3849 369.81C90.5949 353.38 113.765 353.18 119.265 369.52L120.265 372.49L154.945 372.42Z" fill="url(#paint10_linear_741_19)"/>
<path d="M119.665 147.74L150.295 243.52C153.205 252.62 161.695 258.76 171.245 258.69L173.875 258.67C184.035 258.59 192.975 251.97 196.005 242.27L225.815 146.93L190.085 147.14L189.295 149.7C184.195 166.21 160.965 166.58 155.335 150.25L154.355 147.41L119.665 147.74Z" fill="url(#paint11_linear_741_19)"/>
<defs>
<linearGradient id="paint0_linear_741_19" x1="-460.432" y1="253.225" x2="1111.1" y2="963.522" gradientUnits="userSpaceOnUse">
<stop stop-color="#F2EE84"/>
<stop offset="0.0941" stop-color="#EDD664"/>
<stop offset="0.2182" stop-color="#AE8322"/>
<stop offset="0.361" stop-color="#E1C45A"/>
<stop offset="0.4136" stop-color="#F5DD6F"/>
<stop offset="0.4845" stop-color="#F1D86B"/>
<stop offset="0.564" stop-color="#E7CB5F"/>
<stop offset="0.6477" stop-color="#D5B44C"/>
<stop offset="0.7337" stop-color="#BC9532"/>
<stop offset="0.7761" stop-color="#AE8322"/>
<stop offset="0.8918" stop-color="#E4C45D"/>
<stop offset="0.9073" stop-color="#EBCD65"/>
<stop offset="1" stop-color="#F4F49C"/>
</linearGradient>
<linearGradient id="paint1_linear_741_19" x1="-447.116" y1="223.764" x2="1124.42" y2="934.061" gradientUnits="userSpaceOnUse">
<stop stop-color="#F2EE84"/>
<stop offset="0.0941" stop-color="#EDD664"/>
<stop offset="0.2182" stop-color="#AE8322"/>
<stop offset="0.361" stop-color="#E1C45A"/>
<stop offset="0.4136" stop-color="#F5DD6F"/>
<stop offset="0.4845" stop-color="#F1D86B"/>
<stop offset="0.564" stop-color="#E7CB5F"/>
<stop offset="0.6477" stop-color="#D5B44C"/>
<stop offset="0.7337" stop-color="#BC9532"/>
<stop offset="0.7761" stop-color="#AE8322"/>
<stop offset="0.8918" stop-color="#E4C45D"/>
<stop offset="0.9073" stop-color="#EBCD65"/>
<stop offset="1" stop-color="#F4F49C"/>
</linearGradient>
<linearGradient id="paint2_linear_741_19" x1="-448.411" y1="226.628" x2="1123.12" y2="936.925" gradientUnits="userSpaceOnUse">
<stop stop-color="#F2EE84"/>
<stop offset="0.0941" stop-color="#EDD664"/>
<stop offset="0.2182" stop-color="#AE8322"/>
<stop offset="0.361" stop-color="#E1C45A"/>
<stop offset="0.4136" stop-color="#F5DD6F"/>
<stop offset="0.4845" stop-color="#F1D86B"/>
<stop offset="0.564" stop-color="#E7CB5F"/>
<stop offset="0.6477" stop-color="#D5B44C"/>
<stop offset="0.7337" stop-color="#BC9532"/>
<stop offset="0.7761" stop-color="#AE8322"/>
<stop offset="0.8918" stop-color="#E4C45D"/>
<stop offset="0.9073" stop-color="#EBCD65"/>
<stop offset="1" stop-color="#F4F49C"/>
</linearGradient>
<linearGradient id="paint3_linear_741_19" x1="-440.969" y1="210.163" x2="1130.56" y2="920.459" gradientUnits="userSpaceOnUse">
<stop stop-color="#F2EE84"/>
<stop offset="0.0941" stop-color="#EDD664"/>
<stop offset="0.2182" stop-color="#AE8322"/>
<stop offset="0.361" stop-color="#E1C45A"/>
<stop offset="0.4136" stop-color="#F5DD6F"/>
<stop offset="0.4845" stop-color="#F1D86B"/>
<stop offset="0.564" stop-color="#E7CB5F"/>
<stop offset="0.6477" stop-color="#D5B44C"/>
<stop offset="0.7337" stop-color="#BC9532"/>
<stop offset="0.7761" stop-color="#AE8322"/>
<stop offset="0.8918" stop-color="#E4C45D"/>
<stop offset="0.9073" stop-color="#EBCD65"/>
<stop offset="1" stop-color="#F4F49C"/>
</linearGradient>
<linearGradient id="paint4_linear_741_19" x1="-421.238" y1="166.507" x2="1150.3" y2="876.805" gradientUnits="userSpaceOnUse">
<stop stop-color="#F2EE84"/>
<stop offset="0.0941" stop-color="#EDD664"/>
<stop offset="0.2182" stop-color="#AE8322"/>
<stop offset="0.361" stop-color="#E1C45A"/>
<stop offset="0.4136" stop-color="#F5DD6F"/>
<stop offset="0.4845" stop-color="#F1D86B"/>
<stop offset="0.564" stop-color="#E7CB5F"/>
<stop offset="0.6477" stop-color="#D5B44C"/>
<stop offset="0.7337" stop-color="#BC9532"/>
<stop offset="0.7761" stop-color="#AE8322"/>
<stop offset="0.8918" stop-color="#E4C45D"/>
<stop offset="0.9073" stop-color="#EBCD65"/>
<stop offset="1" stop-color="#F4F49C"/>
</linearGradient>
<linearGradient id="paint5_linear_741_19" x1="-416.37" y1="155.738" x2="1155.16" y2="866.035" gradientUnits="userSpaceOnUse">
<stop stop-color="#F2EE84"/>
<stop offset="0.0941" stop-color="#EDD664"/>
<stop offset="0.2182" stop-color="#AE8322"/>
<stop offset="0.361" stop-color="#E1C45A"/>
<stop offset="0.4136" stop-color="#F5DD6F"/>
<stop offset="0.4845" stop-color="#F1D86B"/>
<stop offset="0.564" stop-color="#E7CB5F"/>
<stop offset="0.6477" stop-color="#D5B44C"/>
<stop offset="0.7337" stop-color="#BC9532"/>
<stop offset="0.7761" stop-color="#AE8322"/>
<stop offset="0.8918" stop-color="#E4C45D"/>
<stop offset="0.9073" stop-color="#EBCD65"/>
<stop offset="1" stop-color="#F4F49C"/>
</linearGradient>
<linearGradient id="paint6_linear_741_19" x1="-412.603" y1="147.403" x2="1158.93" y2="857.7" gradientUnits="userSpaceOnUse">
<stop stop-color="#F2EE84"/>
<stop offset="0.0941" stop-color="#EDD664"/>
<stop offset="0.2182" stop-color="#AE8322"/>
<stop offset="0.361" stop-color="#E1C45A"/>
<stop offset="0.4136" stop-color="#F5DD6F"/>
<stop offset="0.4845" stop-color="#F1D86B"/>
<stop offset="0.564" stop-color="#E7CB5F"/>
<stop offset="0.6477" stop-color="#D5B44C"/>
<stop offset="0.7337" stop-color="#BC9532"/>
<stop offset="0.7761" stop-color="#AE8322"/>
<stop offset="0.8918" stop-color="#E4C45D"/>
<stop offset="0.9073" stop-color="#EBCD65"/>
<stop offset="1" stop-color="#F4F49C"/>
</linearGradient>
<linearGradient id="paint7_linear_741_19" x1="-406.477" y1="133.85" x2="1165.06" y2="844.148" gradientUnits="userSpaceOnUse">
<stop stop-color="#F2EE84"/>
<stop offset="0.0941" stop-color="#EDD664"/>
<stop offset="0.2182" stop-color="#AE8322"/>
<stop offset="0.361" stop-color="#E1C45A"/>
<stop offset="0.4136" stop-color="#F5DD6F"/>
<stop offset="0.4845" stop-color="#F1D86B"/>
<stop offset="0.564" stop-color="#E7CB5F"/>
<stop offset="0.6477" stop-color="#D5B44C"/>
<stop offset="0.7337" stop-color="#BC9532"/>
<stop offset="0.7761" stop-color="#AE8322"/>
<stop offset="0.8918" stop-color="#E4C45D"/>
<stop offset="0.9073" stop-color="#EBCD65"/>
<stop offset="1" stop-color="#F4F49C"/>
</linearGradient>
<linearGradient id="paint8_linear_741_19" x1="-408.601" y1="138.549" x2="1162.93" y2="848.846" gradientUnits="userSpaceOnUse">
<stop stop-color="#F2EE84"/>
<stop offset="0.0941" stop-color="#EDD664"/>
<stop offset="0.2182" stop-color="#AE8322"/>
<stop offset="0.361" stop-color="#E1C45A"/>
<stop offset="0.4136" stop-color="#F5DD6F"/>
<stop offset="0.4845" stop-color="#F1D86B"/>
<stop offset="0.564" stop-color="#E7CB5F"/>
<stop offset="0.6477" stop-color="#D5B44C"/>
<stop offset="0.7337" stop-color="#BC9532"/>
<stop offset="0.7761" stop-color="#AE8322"/>
<stop offset="0.8918" stop-color="#E4C45D"/>
<stop offset="0.9073" stop-color="#EBCD65"/>
<stop offset="1" stop-color="#F4F49C"/>
</linearGradient>
<linearGradient id="paint9_linear_741_19" x1="-167.173" y1="608.758" x2="670.677" y2="-187.2" gradientUnits="userSpaceOnUse">
<stop stop-color="#E4B268"/>
<stop offset="0.1048" stop-color="#BD9347"/>
<stop offset="0.3587" stop-color="#BD9347"/>
<stop offset="0.7589" stop-color="#FBF18F"/>
<stop offset="1" stop-color="#896634"/>
</linearGradient>
<linearGradient id="paint10_linear_741_19" x1="-175.075" y1="600.439" x2="662.775" y2="-195.518" gradientUnits="userSpaceOnUse">
<stop stop-color="#E4B268"/>
<stop offset="0.1048" stop-color="#BD9347"/>
<stop offset="0.3587" stop-color="#BD9347"/>
<stop offset="0.7589" stop-color="#FBF18F"/>
<stop offset="1" stop-color="#896634"/>
</linearGradient>
<linearGradient id="paint11_linear_741_19" x1="-218.583" y1="554.642" x2="619.267" y2="-241.316" gradientUnits="userSpaceOnUse">
<stop stop-color="#E4B268"/>
<stop offset="0.1048" stop-color="#BD9347"/>
<stop offset="0.3587" stop-color="#BD9347"/>
<stop offset="0.7589" stop-color="#FBF18F"/>
<stop offset="1" stop-color="#896634"/>
</linearGradient>
</defs>
</svg>
